<?xml version="1.0" encoding="UTF-8"?>
<svg fill="none" viewBox="0 0 330 67" xmlns="http://www.w3.org/2000/svg">
<path d="m275.38 1.9968h12.28c2.653 4.7818 5.305 9.466 7.958 14.248 2.456 4.4891 5.108 8.8805 7.172 13.565 1.964-4.489 4.421-8.6853 6.778-12.979 2.751-4.977 5.502-9.8564 8.253-14.833h12.182v63.237h-10.709v-28.984c0-6.4408-0.294-12.979 0.688-19.42-1.081 3.1228-2.554 6.148-4.224 9.0756-2.948 5.2698-5.895 10.442-8.842 15.614h-8.449c-1.867-3.2204-3.733-6.4408-5.502-9.7588-2.751-4.8794-5.796-9.6612-7.565-15.028 0.688 4.1962 0.786 8.4901 0.688 12.686v35.717h-10.807v-63.139h0.099zm-57.375 35.424v-35.424h10.807v39.133c0 2.4397 0 4.977 0.688 7.4167 0.589 2.0493 1.768 4.0987 3.635 5.2697 2.358 1.659 5.403 2.0494 8.154 1.9518 2.947 0 6.189-0.5855 8.449-2.6349 2.063-1.8541 2.947-4.5866 3.242-7.2215 0.197-2.4397 0.197-4.8794 0.197-7.3191v-36.595h10.708v36.888c0 3.9035 0.197 7.9046-0.589 11.71-0.786 4.0987-2.751 8.1974-5.993 10.93-3.832 3.318-9.039 4.3914-13.951 4.7818h-4.715c-3.93-0.2928-7.958-0.9759-11.397-3.0252-3.929-2.147-6.68-6.0505-7.859-10.247-1.769-4.9769-1.376-10.344-1.376-15.614zm-46.665-35.424h37.234v10.149h-26.329v15.126h25.347v10.149h-25.347v17.566h26.329v10.149h-37.234v-63.139zm-105.02 0h10.807v40.889c0 3.2204 0.3929 6.636 2.456 9.2708 1.7684 2.3422 4.7158 3.318 7.5648 3.6108 2.9473 0.1952 6.1894 0.0976 8.8419-1.2686 2.1614-1.0735 3.7333-3.0253 4.4211-5.2698 1.081-3.0252 0.884-6.3432 0.884-9.466v-37.766h10.807v40.011c0 3.1228-0.098 6.3432-0.786 9.3684-0.884 4.0987-2.947 8.0022-6.386 10.637-3.831 3.0252-8.7436 4.0987-13.459 4.3915h-4.8139c-4.5192-0.2928-9.2349-1.2687-12.968-4.0011-3.4385-2.4397-5.5998-6.2457-6.5823-10.149-1.2771-4.5866-0.9824-9.3684-0.9824-14.15 0.1965-12.101 0.1965-24.104 0.1965-36.107zm-66.314 0h12.28c3.1438 5.5625 6.1894 11.125 9.3332 16.59 2.0631 3.6108 4.1262 7.2215 5.7963 11.028 0.6877-1.0735 1.0807-2.2446 1.6702-3.318 1.9648-3.9035 4.2244-7.7095 6.2876-11.515 2.3578-4.2939 4.8139-8.4901 7.1718-12.784h12.28v63.237h-10.709v-40.596c0-2.5373 0.2948-5.1722 0.5895-7.7095-1.2772 3.318-2.7508 6.5384-4.6174 9.5636-2.8491 4.977-5.6982 9.954-8.449 14.931h-8.4489l-8.842-15.516c-1.2771-2.2445-2.456-4.5866-3.4385-7.0263-0.2947-0.6831-0.4912-1.4638-0.8841-2.0493 0.4912 3.1228 0.6876 6.2456 0.6876 9.3684v38.938h-10.61c-0.098244-20.981-0.098235-42.06-0.098235-63.139zm141.96-1.0735h4.224c4.52 0.39035 9.137 1.2686 13.067 3.7083v11.027c-1.867-0.9759-3.635-1.9518-5.698-2.6349-4.225-1.4638-8.842-2.1469-13.263-1.4638-2.063 0.3904-4.126 0.9759-5.698 2.4397-2.948 2.6349-2.948 8.0022 0.294 10.442 2.849 2.2445 6.484 3.1228 9.825 4.3915 4.617 1.5614 9.333 3.3179 12.575 7.0263 3.242 3.6107 4.126 8.6853 3.635 13.272-0.393 4.5867-2.554 8.9781-6.091 11.906-4.126 3.4156-9.432 4.977-14.737 5.3674h-4.224c-5.109-0.3904-10.414-1.5614-14.835-4.2939v-11.027c5.305 3.0252 11.298 5.0745 17.487 4.977 3.046-0.0976 6.19-0.6832 8.646-2.6349 2.947-2.3421 3.635-7.2215 1.179-10.149-1.867-2.147-4.716-3.1229-7.369-4.0987-4.421-1.5614-9.038-2.8301-12.968-5.465-3.045-2.0493-5.403-5.0745-6.189-8.6853-0.982-4.0011-0.884-8.3925 0.589-12.296 1.179-3.1228 3.439-5.8553 6.288-7.7095 3.93-2.6349 8.645-3.8059 13.263-4.0987z" fill="#0F0F0F"/>
</svg>
