<svg width="330" height="66" viewBox="0 0 330 66" fill="none" xmlns="http://www.w3.org/2000/svg">
<path d="M110.654 1.08322H121.445V27.2776C128.116 18.7102 134.786 10.2414 141.359 1.67407C141.555 1.37865 141.751 0.98475 142.242 1.08322H155.387C155.289 1.37865 155.19 1.67407 154.994 1.87102C147.048 11.817 139.102 21.763 131.058 31.7089C139.299 42.4427 147.539 53.275 155.877 64.0087C156.073 64.3042 156.171 64.5011 156.27 64.895H142.732C135.571 55.4414 128.508 45.8893 121.445 36.4357C121.347 45.8893 121.445 55.3429 121.445 64.895H110.654V1.08322ZM85.345 1.08322H96.1357V40.5717C96.1357 43.4275 96.2338 46.3817 95.7433 49.139C95.0566 53.7673 92.8985 58.1987 89.2689 61.153C85.5412 64.4026 80.4401 65.6828 75.5352 65.9782H71.0227C65.4311 65.6828 59.8396 64.2057 54.9347 61.4484V50.3207C55.4252 50.4192 55.8176 50.6161 56.3081 50.8131C62.1939 53.8658 68.7665 55.8353 75.4371 55.146C78.0857 54.8506 80.8325 53.9643 82.6963 51.9948C84.6583 49.9268 85.4431 46.9726 85.4431 44.2153C85.345 29.8379 85.345 15.4606 85.345 1.08322ZM54.9347 1.08322H65.7254V40.7686H55.0328C54.9347 27.573 54.9347 14.2789 54.9347 1.08322ZM10.7907 11.2261V31.2166H18.8348C21.9739 31.0196 25.4073 30.6257 27.9578 28.5577C30.116 26.8837 30.9008 24.0279 30.9008 21.3691C30.9989 18.8087 30.3122 15.9529 28.3502 14.1804C26.2902 12.3094 23.5434 11.62 20.8948 11.4231C17.4614 11.1277 14.1261 11.2261 10.7907 11.2261ZM0 1.08322H17.6576C22.072 0.98475 26.6826 1.37865 30.9008 2.95425C34.8247 4.3329 38.2581 7.18867 40.0238 11.0292C42.182 15.756 42.3782 21.1721 41.5934 26.2928C40.8086 31.0196 37.9638 35.3525 33.7456 37.7159C37.4733 46.7756 41.3972 55.8353 45.0268 64.9935H33.3532C30.2141 57.017 27.075 48.9421 23.9358 40.8671C19.6195 41.5564 15.2051 41.1625 10.8888 41.261V64.9935H0V1.08322ZM181.186 0H185.405C189.917 0.3939 194.528 1.37865 198.452 3.74205V14.7712C197.372 14.2789 196.293 13.5895 195.214 13.0972C190.506 10.9307 185.208 9.8475 180.009 10.5368C177.655 10.8322 175.301 11.62 173.633 13.2941C171.769 15.1651 171.278 18.1194 172.063 20.5813C172.75 22.7477 174.712 24.2248 176.674 25.1111C182.265 27.7699 188.544 28.7547 193.645 32.3983C196.686 34.4662 198.942 37.6174 199.727 41.1625C200.904 46.2832 200.414 52.0933 197.471 56.6231C195.116 60.3652 191.29 62.9255 187.268 64.3042C184.718 65.1904 182.069 65.5843 179.421 65.8798H175.202C170.003 65.4859 164.804 64.3042 160.292 61.5469V50.4192C161.763 51.1085 163.136 51.9948 164.608 52.5856C169.218 54.5551 174.221 55.8353 179.224 55.3429C181.971 55.0475 184.816 54.3582 186.778 52.3887C189.034 50.3207 189.623 46.7756 188.446 44.0183C187.563 41.9503 185.503 40.6702 183.541 39.7839C180.696 38.5037 177.753 37.6174 174.81 36.5342C170.69 35.0571 166.374 33.0876 163.627 29.444C160.782 25.8989 160.095 21.0736 160.488 16.6423C160.88 12.5063 162.646 8.56732 165.687 5.71155C169.905 2.06797 175.693 0.3939 181.186 0Z" fill="#0F0F0F"/>
</svg>
