<svg width="82" height="29" viewBox="0 0 82 29" fill="none" xmlns="http://www.w3.org/2000/svg">
<path d="M18.2249 18.9328C18.3622 18.8972 18.4309 18.8261 18.4653 18.6838L18.637 16.5849L18.3966 16.5138V16.4071C18.5683 16.3715 18.8087 16.3715 18.9461 16.3715H19.0835L19.7018 18.3636L20.2857 16.3715H20.4574C20.5948 16.3715 20.7665 16.3715 20.9382 16.4071V16.5138L20.6978 16.5849L20.8695 18.8261L21.11 18.8616V18.9683C21.0069 19.0039 20.8695 19.0395 20.7322 19.0395C20.5604 19.0395 20.423 19.0395 20.2857 19.0039V18.9328C20.4574 18.8972 20.5261 18.7905 20.5261 18.6126L20.423 16.7628L19.7361 19.0395L19.5987 19.0751L18.8774 16.7984L18.7401 18.8616L18.9805 18.9328V19.0395C18.8087 19.0751 18.7057 19.1106 18.534 19.1106C18.4309 19.1106 18.3279 19.1106 18.2249 19.0751V18.9328ZM21.3504 18.9328C21.4534 18.8972 21.5565 18.8261 21.5565 18.7193V17.332L21.3161 17.2253V17.1541C21.4878 17.1185 21.6595 17.083 21.7969 17.083H21.9343L21.8999 17.2964V18.8616L22.106 18.9328V19.0039C21.9686 19.0395 21.8656 19.0751 21.6595 19.0751C21.5565 19.0751 21.4534 19.0751 21.3504 19.0395V18.9328ZM21.5221 16.4426C21.5221 16.3003 21.6252 16.1936 21.7626 16.1936C21.8656 16.1936 21.9686 16.2648 21.9686 16.4071C21.9686 16.5494 21.8656 16.6561 21.7626 16.6561C21.6252 16.6917 21.5221 16.5849 21.5221 16.4426ZM22.3808 18.9328C22.4838 18.8972 22.5869 18.8261 22.5869 18.7193V17.332L22.3465 17.2253V17.1185C22.5182 17.083 22.6899 17.0474 22.8273 17.0474H22.9303V17.2608C23.0677 17.1185 23.2738 17.0474 23.5142 17.0474C23.8577 17.0474 24.0638 17.2608 24.0638 17.6877V18.8261L24.2699 18.8972V18.9683C24.1668 19.0039 24.0294 19.0395 23.8577 19.0395C23.789 19.0395 23.686 19.0395 23.6173 19.0039V18.9328C23.7203 18.8972 23.7547 18.8261 23.7547 18.6482V17.8656C23.7547 17.4743 23.5829 17.2964 23.3425 17.2964C23.1708 17.2964 23.0334 17.3675 22.9303 17.4387V18.8261L23.1364 18.8972V18.9683C22.999 19.0039 22.8617 19.0395 22.6899 19.0395C22.5869 19.0395 22.4838 19.0395 22.3808 19.0039V18.9328ZM24.5103 18.9328C24.6133 18.8972 24.7164 18.8261 24.7164 18.7193V17.332L24.4759 17.2253V17.1541C24.6477 17.1185 24.8194 17.083 24.9568 17.083H25.0942L25.0598 17.2964V18.8616L25.2659 18.9328V19.0039C25.1285 19.0395 25.0255 19.0751 24.8194 19.0751C24.7164 19.0751 24.6133 19.0751 24.5103 19.0395V18.9328ZM24.682 16.4426C24.682 16.3003 24.7851 16.1936 24.9225 16.1936C25.0255 16.1936 25.1285 16.2648 25.1285 16.4071C25.1285 16.5494 25.0255 16.6561 24.9225 16.6561C24.7851 16.6917 24.682 16.5849 24.682 16.4426ZM25.5407 18.577C25.7124 18.7549 25.8842 18.8261 26.0902 18.8261C26.2963 18.8261 26.4337 18.7193 26.4337 18.577C26.4337 18.4347 26.365 18.328 26.0902 18.2213L25.8842 18.1502C25.6437 18.0434 25.5407 17.8656 25.5407 17.6521C25.5407 17.332 25.8155 17.0474 26.2276 17.0474C26.5367 17.0474 26.6741 17.1541 26.6741 17.2964C26.6741 17.3675 26.6741 17.4031 26.6398 17.4743C26.5024 17.3675 26.3307 17.332 26.1933 17.332C25.9529 17.332 25.8155 17.4387 25.8155 17.581C25.8155 17.7233 25.8842 17.7944 26.1246 17.9011L26.3307 17.9723C26.6054 18.079 26.7085 18.2213 26.7085 18.4703C26.7085 18.7905 26.3994 19.0751 25.9872 19.0751C25.6437 19.0751 25.472 18.9683 25.472 18.7549C25.5063 18.6838 25.5063 18.6126 25.5407 18.577ZM27.155 17.9011V17.3675H26.9489V17.2253L27.3611 16.7984H27.4985V17.1541H28.0137L27.9793 17.3675H27.4641V18.328C27.4641 18.6482 27.5671 18.7905 27.7045 18.7905C27.8076 18.7905 27.9106 18.7549 28.0137 18.6838H28.048C28.048 18.9328 27.9106 19.0395 27.6358 19.0395C27.3267 19.0395 27.155 18.8616 27.155 18.4703C27.1206 18.2925 27.155 18.079 27.155 17.9011ZM28.151 18.9328C28.2541 18.8972 28.3571 18.8261 28.3571 18.7193V17.332L28.1167 17.2253V17.1185C28.2884 17.083 28.4602 17.0474 28.5975 17.0474H28.7006V17.332L28.8036 17.1897C28.9067 17.083 29.0097 17.0118 29.1471 17.0118C29.2845 17.0118 29.3532 17.083 29.3532 17.1897C29.3532 17.2608 29.3188 17.3675 29.2845 17.4387C29.2158 17.3675 29.1127 17.332 29.0441 17.332C28.9067 17.332 28.8036 17.4031 28.7006 17.5098V18.8261L28.9754 18.8972V18.9683C28.838 19.0039 28.7006 19.0395 28.4945 19.0395C28.3915 19.0395 28.2541 19.0395 28.1854 19.0039V18.9328H28.151ZM30.1431 18.8972L29.5249 17.2964L29.3875 17.1897V17.083H30.1088V17.1897L29.9027 17.2964L30.3149 18.5415L30.6927 17.2964L30.4866 17.1897V17.083H31.0705V17.1897L30.9675 17.2964L30.4179 18.8972C30.1088 19.7865 29.7997 20.0711 29.5936 20.0711C29.4219 20.0711 29.3532 20 29.3532 19.751H29.5249C29.6966 19.751 29.9371 19.5375 30.1088 19.1106L30.1431 18.8972ZM32.7878 17.0118C33.2687 17.0118 33.6465 17.4031 33.6465 17.9723C33.6465 18.6482 33.2 19.0751 32.7191 19.0751C32.2383 19.0751 31.8605 18.7193 31.8605 18.1146C31.8605 17.4387 32.307 17.0118 32.7878 17.0118ZM32.7535 18.8261C33.0283 18.8261 33.303 18.577 33.303 18.0079C33.303 17.5454 33.0626 17.2608 32.7878 17.2608C32.5131 17.2608 32.2383 17.5454 32.2383 18.079C32.2039 18.577 32.4444 18.8261 32.7535 18.8261ZM33.9556 18.9328C34.0587 18.8972 34.1617 18.8261 34.1617 18.7193V17.3675H33.9556V17.2253L34.1617 17.1185V16.7984C34.1617 16.3715 34.4365 16.0513 34.9173 16.0513C35.1921 16.0513 35.2951 16.1225 35.2951 16.2648C35.2951 16.3003 35.2951 16.3715 35.2608 16.4071C35.1234 16.3715 34.883 16.3359 34.7456 16.3359C34.5739 16.3359 34.4365 16.4782 34.4365 16.7984V17.1541H34.9517L34.9173 17.3675H34.4365V18.8616L34.6769 18.9328V19.0039C34.5395 19.0395 34.4021 19.0751 34.1961 19.0751C34.093 19.0751 33.99 19.0751 33.8869 19.0395V18.9328H33.9556ZM35.8103 18.8972C35.9821 18.8616 36.0508 18.7905 36.0508 18.577V16.5849L35.8103 16.4782V16.3715H37.2873L37.2529 16.9762H37.1499V16.9051C37.1155 16.6917 37.0468 16.6205 36.8064 16.6205H36.3942V17.5454H36.8064C36.9781 17.5454 37.0468 17.5098 37.0812 17.4031L37.1155 17.2964H37.2186V18.079H37.1155L37.0812 17.9723C37.0468 17.83 36.9781 17.7589 36.8751 17.7589H36.3942V18.7193H36.8751C37.0812 18.7193 37.1842 18.6482 37.2529 18.5059L37.2873 18.4347H37.3903L37.3216 18.9683H35.8103V18.8972ZM38.5581 17.0474C38.6611 17.0474 38.7642 17.0474 38.8329 17.083V16.3715L38.5581 16.2648V16.1581C38.7298 16.1225 38.9359 16.0869 39.0389 16.0869H39.1763L39.142 16.3003V18.6482C39.1763 18.7193 39.2107 18.8261 39.2794 18.8972C39.2107 18.9683 39.1076 19.0395 39.0046 19.0751C38.9359 19.0039 38.8672 18.9328 38.7985 18.8261C38.6611 18.9683 38.455 19.0751 38.2833 19.0751C37.8711 19.0751 37.562 18.7193 37.562 18.1857C37.6307 17.4387 38.0772 17.0474 38.5581 17.0474ZM38.8672 18.6482V17.2964C38.7985 17.2608 38.6955 17.2608 38.5924 17.2608C38.249 17.2608 38.0085 17.5454 38.0085 18.1146C38.0085 18.577 38.249 18.7905 38.4894 18.7905C38.5924 18.7905 38.7642 18.7549 38.8672 18.6482ZM39.7946 17.332L39.5541 17.2253V17.1541C39.7259 17.1185 39.8976 17.083 40.0006 17.083H40.138L40.1037 17.2964V18.2213C40.1037 18.6482 40.2411 18.7905 40.4815 18.7905C40.6189 18.7905 40.7906 18.7193 40.8593 18.6838V17.3675L40.6189 17.2608V17.1897C40.7906 17.1541 40.9623 17.1185 41.0654 17.1185H41.2028L41.1684 17.332V18.7193C41.2028 18.7905 41.2715 18.8616 41.3058 18.9328C41.2371 19.0039 41.1341 19.0751 41.031 19.1106C40.9623 19.0395 40.8937 18.9683 40.8593 18.8616C40.7563 18.9683 40.5502 19.0751 40.2754 19.0751C39.9319 19.0751 39.7259 18.8616 39.7259 18.3992V17.332H39.7946ZM42.5766 17.0474C42.8858 17.0474 42.9888 17.1541 42.9888 17.2964C42.9888 17.3675 42.9545 17.4387 42.9545 17.5098C42.8171 17.4031 42.6453 17.332 42.5079 17.332C42.2332 17.332 41.9927 17.6166 41.9927 18.079C41.9927 18.577 42.2332 18.8261 42.5423 18.8261C42.6797 18.8261 42.8858 18.7549 42.9888 18.6482C42.9888 18.6838 43.0231 18.7193 43.0231 18.7549C43.0231 18.9328 42.8171 19.1106 42.4393 19.1106C41.9927 19.1106 41.6493 18.7549 41.6493 18.1857C41.6493 17.4387 42.0614 17.0474 42.5766 17.0474ZM44.2253 17.9367V17.83C44.2253 17.4031 44.1222 17.2964 43.8818 17.2964C43.6757 17.2964 43.4697 17.4031 43.2979 17.5454V17.4387C43.2979 17.1897 43.4697 17.0118 43.9505 17.0118C44.3627 17.0118 44.6031 17.2253 44.6031 17.5454V18.6482C44.6374 18.7193 44.7061 18.7905 44.7748 18.8616C44.7061 18.9328 44.6031 19.0039 44.5001 19.0751C44.4314 19.0395 44.3627 18.9683 44.3283 18.8616C44.2253 18.9683 44.0192 19.0751 43.7788 19.0751C43.4697 19.0751 43.2636 18.8972 43.2636 18.6126C43.1949 18.2569 43.5727 17.9367 44.2253 17.9367ZM43.8475 18.8261C43.9849 18.8261 44.1222 18.7905 44.2253 18.7193V18.1502C43.7788 18.1502 43.5383 18.328 43.5383 18.577C43.5383 18.7193 43.6414 18.8261 43.8475 18.8261ZM45.1526 17.9011V17.3675H44.9466V17.2253L45.3587 16.7984H45.4961V17.1541H46.0113L45.977 17.3675H45.4618V18.328C45.4618 18.6482 45.5648 18.7905 45.7022 18.7905C45.8052 18.7905 45.9083 18.7549 46.0113 18.6838H46.0457C46.0457 18.9328 45.9083 19.0395 45.6335 19.0395C45.3244 19.0395 45.1526 18.8616 45.1526 18.4703V17.9011ZM46.183 18.9328C46.2861 18.8972 46.3891 18.8261 46.3891 18.7193V17.332L46.1487 17.2253V17.1541C46.3204 17.1185 46.4922 17.083 46.6295 17.083H46.7669L46.7326 17.2964V18.8616L46.9387 18.9328V19.0039C46.8013 19.0395 46.6982 19.0751 46.4922 19.0751C46.3891 19.0751 46.2861 19.0751 46.183 19.0395V18.9328ZM46.3204 16.4426C46.3204 16.3003 46.4235 16.1936 46.5609 16.1936C46.6639 16.1936 46.7669 16.2648 46.7669 16.4071C46.7669 16.5494 46.6639 16.6561 46.5609 16.6561C46.4235 16.6917 46.3204 16.5849 46.3204 16.4426ZM48.1065 17.0118C48.5873 17.0118 48.9651 17.4031 48.9651 17.9723C48.9651 18.6482 48.5186 19.0751 48.0378 19.0751C47.5569 19.0751 47.1791 18.7193 47.1791 18.1146C47.1791 17.4387 47.6256 17.0118 48.1065 17.0118ZM48.0721 18.8261C48.3469 18.8261 48.6217 18.577 48.6217 18.0079C48.6217 17.5454 48.3812 17.2608 48.1065 17.2608C47.8317 17.2608 47.5569 17.5454 47.5569 18.079C47.5226 18.577 47.7973 18.8261 48.0721 18.8261ZM49.2742 18.9328C49.3773 18.8972 49.4803 18.8261 49.4803 18.7193V17.332L49.2399 17.2253V17.1185C49.4116 17.083 49.5834 17.0474 49.7207 17.0474H49.8238V17.2608C49.9612 17.1185 50.1673 17.0474 50.4077 17.0474C50.7511 17.0474 50.9572 17.2608 50.9572 17.6877V18.8261L51.1633 18.8972V18.9683C51.0603 19.0039 50.9229 19.0395 50.7511 19.0395C50.6825 19.0395 50.5794 19.0395 50.5107 19.0039V18.9328C50.6138 18.8972 50.6481 18.8261 50.6481 18.6482V17.8656C50.6481 17.4743 50.4764 17.2964 50.2359 17.2964C50.0642 17.2964 49.9268 17.3675 49.8238 17.4387V18.8261L50.0299 18.8972V18.9683C49.8925 19.0039 49.7551 19.0395 49.5834 19.0395C49.4803 19.0395 49.3773 19.0395 49.2742 19.0039V18.9328ZM51.7472 18.5415C51.8846 18.5415 51.9533 18.6482 51.9533 18.7905C51.9533 19.1818 51.6442 19.5019 51.4724 19.5375L51.3694 19.5019C51.5411 19.3241 51.6098 19.1462 51.6098 18.8972L51.4724 18.7193C51.5755 18.6482 51.6785 18.5415 51.7472 18.5415ZM54.3575 16.3715C54.6323 16.3715 54.8041 16.4071 54.9414 16.4782L54.9071 17.0474H54.804V16.9762C54.7354 16.7272 54.6323 16.6205 54.3575 16.6205C53.9797 16.6205 53.6019 17.0474 53.6019 17.7589C53.6019 18.5059 53.9797 18.8616 54.3232 18.8616C54.6323 18.8616 54.7697 18.7549 54.8384 18.5415L54.8727 18.4347H54.9758L54.9414 18.9683C54.8041 19.0395 54.5636 19.1106 54.2545 19.1106C53.6706 19.1106 53.1898 18.6838 53.1898 17.83C53.1554 16.9051 53.7393 16.3715 54.3575 16.3715ZM55.4566 17.332L55.2162 17.2253V17.1541C55.3879 17.1185 55.5597 17.083 55.6627 17.083H55.8001L55.7658 17.2964V18.2213C55.7658 18.6482 55.9032 18.7905 56.1436 18.7905C56.281 18.7905 56.4527 18.7193 56.5214 18.6838V17.3675L56.281 17.2608V17.1897C56.4527 17.1541 56.6244 17.1185 56.7275 17.1185H56.8649L56.8305 17.332V18.7193C56.8648 18.7905 56.9335 18.8616 56.9679 18.9328C56.8992 19.0039 56.7962 19.0751 56.6931 19.1106C56.6244 19.0395 56.5557 18.9683 56.5214 18.8616C56.4183 18.9683 56.2123 19.0751 55.9375 19.0751C55.594 19.0751 55.3879 18.8616 55.3879 18.3992V17.332H55.4566ZM57.3457 18.9328C57.4487 18.8972 57.5518 18.8261 57.5518 18.7193V16.3359L57.3114 16.2292V16.1225C57.4831 16.0869 57.6892 16.0513 57.7922 16.0513H57.9296L57.8953 16.2648V18.7905L58.1013 18.8616V18.9328C57.9639 18.9683 57.8266 19.0039 57.6548 19.0039C57.5518 19.0039 57.4487 19.0039 57.3457 18.9683V18.9328ZM58.5135 17.9011V17.3675H58.3074V17.2253L58.7196 16.7984H58.857V17.1541H59.3722L59.3378 17.3675H58.8226V18.328C58.8226 18.6482 58.9257 18.7905 59.063 18.7905C59.1661 18.7905 59.2691 18.7549 59.3722 18.6838H59.4065C59.4065 18.9328 59.2691 19.0395 58.9943 19.0395C58.6852 19.0395 58.5135 18.8616 58.5135 18.4703V17.9011ZM59.7156 17.332L59.4752 17.2253V17.1541C59.6469 17.1185 59.8187 17.083 59.9217 17.083H60.0591L60.0247 17.2964V18.2213C60.0247 18.6482 60.1621 18.7905 60.4026 18.7905C60.5399 18.7905 60.7117 18.7193 60.7804 18.6838V17.3675L60.5399 17.2608V17.1897C60.7117 17.1541 60.8834 17.1185 60.9865 17.1185H61.1238L61.0895 17.332V18.7193C61.1238 18.7905 61.1925 18.8616 61.2269 18.9328C61.1582 19.0039 61.0551 19.0751 60.9521 19.1106C60.8834 19.0395 60.8147 18.9683 60.7804 18.8616C60.6773 18.9683 60.4712 19.0751 60.1965 19.0751C59.853 19.0751 59.6469 18.8616 59.6469 18.3992V17.332H59.7156ZM61.6047 18.9328C61.7077 18.8972 61.8108 18.8261 61.8108 18.7193V17.332L61.5703 17.2253V17.1185C61.7421 17.083 61.9138 17.0474 62.0512 17.0474H62.1542V17.332L62.2573 17.1897C62.3603 17.083 62.4634 17.0118 62.6007 17.0118C62.7381 17.0118 62.8068 17.083 62.8068 17.1897C62.8068 17.2608 62.7725 17.3675 62.7381 17.4387C62.6694 17.3675 62.5664 17.332 62.4977 17.332C62.3603 17.332 62.2573 17.4031 62.1542 17.5098V18.8261L62.429 18.8972V18.9683C62.2916 19.0039 62.1542 19.0395 61.9482 19.0395C61.8451 19.0395 61.7077 19.0395 61.639 19.0039V18.9328H61.6047ZM63.6655 17.0118C64.0777 17.0118 64.3524 17.2964 64.3524 17.7944V18.0434H63.1846C63.1846 18.5059 63.4251 18.7549 63.7685 18.7549C63.9746 18.7549 64.1807 18.6838 64.3181 18.577V18.6838C64.3181 18.8616 64.0433 19.0395 63.6312 19.0395C63.1846 19.0395 62.8068 18.6838 62.8068 18.1146C62.8412 17.4031 63.2533 17.0118 63.6655 17.0118ZM64.0433 17.83C64.0433 17.4387 63.8716 17.2253 63.6312 17.2253C63.4251 17.2253 63.1846 17.5098 63.1846 17.83H64.0433ZM66.3445 17.9367V17.83C66.3445 17.4031 66.2415 17.2964 66.0011 17.2964C65.795 17.2964 65.5889 17.4031 65.4172 17.5454V17.4387C65.4172 17.1897 65.5889 17.0118 66.0698 17.0118C66.4819 17.0118 66.7223 17.2253 66.7223 17.5454V18.6482C66.7567 18.7193 66.8254 18.7905 66.8941 18.8616C66.8254 18.9328 66.7223 19.0039 66.6193 19.0751C66.5506 19.0395 66.4819 18.9683 66.4476 18.8616C66.3445 18.9683 66.1385 19.0751 65.898 19.0751C65.5889 19.0751 65.3828 18.8972 65.3828 18.6126C65.3141 18.2569 65.6919 17.9367 66.3445 17.9367ZM65.9667 18.8261C66.1041 18.8261 66.2415 18.7905 66.3445 18.7193V18.1502C65.898 18.1502 65.6576 18.328 65.6576 18.577C65.6576 18.7193 65.7606 18.8261 65.9667 18.8261ZM67.1002 18.9328C67.2032 18.8972 67.3062 18.8261 67.3062 18.7193V17.332L67.0658 17.2253V17.1185C67.2375 17.083 67.4093 17.0474 67.5467 17.0474H67.6497V17.2608C67.7871 17.1185 67.9932 17.0474 68.2336 17.0474C68.5771 17.0474 68.7831 17.2608 68.7831 17.6877V18.8261L68.9892 18.8972V18.9683C68.8862 19.0039 68.7488 19.0395 68.5771 19.0395C68.5084 19.0395 68.4053 19.0395 68.3366 19.0039V18.9328C68.4397 18.8972 68.474 18.8261 68.474 18.6482V17.8656C68.474 17.4743 68.3023 17.2964 68.0619 17.2964C67.8901 17.2964 67.7527 17.3675 67.6497 17.4387V18.8261L67.8558 18.8972V18.9683C67.7184 19.0039 67.581 19.0395 67.4093 19.0395C67.3062 19.0395 67.2032 19.0395 67.1002 19.0039V18.9328ZM70.1227 17.0474C70.2257 17.0474 70.3287 17.0474 70.3974 17.083V16.3715L70.1227 16.2648V16.1581C70.2944 16.1225 70.5005 16.0869 70.6035 16.0869H70.7409L70.7066 16.3003V18.6482C70.7409 18.7193 70.7753 18.8261 70.8439 18.8972C70.7753 18.9683 70.6722 19.0395 70.5692 19.0751C70.5005 19.0039 70.4318 18.9328 70.3631 18.8261C70.2257 18.9683 70.0196 19.0751 69.8479 19.0751C69.4357 19.0751 69.1266 18.7193 69.1266 18.1857C69.1953 17.4387 69.6075 17.0474 70.1227 17.0474ZM70.3974 18.6482V17.2964C70.3287 17.2608 70.2257 17.2608 70.1227 17.2608C69.7792 17.2608 69.5388 17.5454 69.5388 18.1146C69.5388 18.577 69.7792 18.7905 70.0196 18.7905C70.157 18.7905 70.3287 18.7549 70.3974 18.6482ZM18.2592 22.9881H18.3622L18.3966 23.0948C18.4653 23.3083 18.5683 23.415 18.8774 23.415C19.1866 23.415 19.3926 23.2371 19.3926 22.9881C19.3926 22.8458 19.2896 22.668 19.0492 22.5257L18.6714 22.3122C18.4309 22.1699 18.3279 21.9565 18.3279 21.7075C18.3279 21.3162 18.7057 20.996 19.1522 20.996C19.3926 20.996 19.5644 21.0316 19.7018 21.1027L19.6674 21.6719H19.5644V21.6008C19.53 21.3518 19.3926 21.2806 19.1522 21.2806C18.8774 21.2806 18.6714 21.4585 18.6714 21.6719C18.6714 21.8498 18.7401 21.9565 18.9805 22.0988L19.3583 22.3122C19.6331 22.4545 19.7705 22.668 19.7705 22.9526C19.7705 23.3794 19.3583 23.7352 18.8774 23.7352C18.637 23.7352 18.4309 23.6996 18.2592 23.664V22.9881ZM20.9382 21.6719C21.2474 21.6719 21.3504 21.7786 21.3504 21.9209C21.3504 21.9921 21.3161 22.0632 21.3161 22.1344C21.1787 22.0277 21.0069 21.9565 20.8695 21.9565C20.5948 21.9565 20.3543 22.2411 20.3543 22.7035C20.3543 23.2016 20.5948 23.4506 20.9039 23.4506C21.0413 23.4506 21.2474 23.3794 21.3504 23.2727C21.3504 23.3083 21.3847 23.3439 21.3847 23.3794C21.3847 23.5573 21.1787 23.7352 20.8009 23.7352C20.3543 23.7352 20.0109 23.3794 20.0109 22.8103C20.0109 22.0632 20.423 21.6719 20.9382 21.6719ZM21.6252 23.5573C21.7282 23.5217 21.8313 23.4506 21.8313 23.3439V21.9565L21.5908 21.8498V21.7786C21.7626 21.7431 21.9343 21.7075 22.0717 21.7075H22.2091L22.1747 21.9209V23.4862L22.3808 23.5573V23.6285C22.2434 23.664 22.1404 23.6996 21.9343 23.6996C21.8313 23.6996 21.7282 23.6996 21.6252 23.664V23.5573ZM21.7969 21.0672C21.7969 20.9249 21.8999 20.8182 22.0373 20.8182C22.1404 20.8182 22.2434 20.8893 22.2434 21.0316C22.2434 21.1739 22.1404 21.2806 22.0373 21.2806C21.8656 21.3162 21.7969 21.2095 21.7969 21.0672ZM23.4455 21.6363C23.8577 21.6363 24.1325 21.9209 24.1325 22.419V22.668H22.9647C22.9647 23.1304 23.2051 23.3794 23.5486 23.3794C23.7547 23.3794 23.9607 23.3083 24.0981 23.2016V23.3083C24.0981 23.4862 23.8234 23.664 23.4112 23.664C22.9647 23.664 22.5869 23.3083 22.5869 22.7391C22.6212 22.0277 23.0334 21.6363 23.4455 21.6363ZM23.8234 22.4545C23.8234 22.0632 23.6516 21.8498 23.4112 21.8498C23.2051 21.8498 22.9647 22.1344 22.9647 22.4545H23.8234ZM24.4073 23.5573C24.5103 23.5217 24.6133 23.4506 24.6133 23.3439V21.9565L24.3729 21.8498V21.7431C24.5446 21.7075 24.7164 21.6719 24.8538 21.6719H24.9568V21.8854C25.0942 21.7431 25.3003 21.6719 25.5407 21.6719C25.8842 21.6719 26.0902 21.8854 26.0902 22.3122V23.4506L26.2963 23.5217V23.5929C26.1933 23.6285 26.0559 23.664 25.8842 23.664C25.8155 23.664 25.7124 23.664 25.6437 23.6285V23.5573C25.7468 23.5217 25.7811 23.4506 25.7811 23.2727V22.4901C25.7811 22.0988 25.6094 21.9209 25.369 21.9209C25.1972 21.9209 25.0598 21.9921 24.9568 22.0632V23.4506L25.1629 23.5217V23.5929C25.0255 23.6285 24.8881 23.664 24.7164 23.664C24.6133 23.664 24.5103 23.664 24.4073 23.6285V23.5573ZM27.4298 21.6719C27.7389 21.6719 27.8419 21.7786 27.8419 21.9209C27.8419 21.9921 27.8076 22.0632 27.8076 22.1344C27.6702 22.0277 27.4985 21.9565 27.3611 21.9565C27.0863 21.9565 26.8459 22.2411 26.8459 22.7035C26.8459 23.2016 27.0863 23.4506 27.3954 23.4506C27.5328 23.4506 27.7389 23.3794 27.8419 23.2727C27.8419 23.3083 27.8763 23.3439 27.8763 23.3794C27.8763 23.5573 27.6702 23.7352 27.2924 23.7352C26.8459 23.7352 26.5024 23.3794 26.5024 22.8103C26.5024 22.0632 26.9146 21.6719 27.4298 21.6719ZM28.8723 21.6363C29.2845 21.6363 29.5593 21.9209 29.5593 22.419V22.668H28.3915C28.3915 23.1304 28.6319 23.3794 28.9754 23.3794C29.1814 23.3794 29.3875 23.3083 29.5249 23.2016V23.3083C29.5249 23.4862 29.2501 23.664 28.838 23.664C28.3915 23.664 28.0137 23.3083 28.0137 22.7391C28.048 22.0277 28.4602 21.6363 28.8723 21.6363ZM29.2501 22.4545C29.2501 22.0632 29.0784 21.8498 28.838 21.8498C28.6319 21.8498 28.3915 22.1344 28.3915 22.4545H29.2501Z" fill="#0F0F0F"/>
<path d="M7.32647 19.0526C7.42986 18.9946 7.5677 18.9946 7.53324 19.1105C7.53324 19.1105 7.49878 19.1395 7.3954 19.1395V19.1974C7.3954 19.1974 7.36093 19.2264 7.3954 19.2554C7.3954 19.2554 7.49878 19.1974 7.5677 19.2264C7.60217 19.2843 7.5677 19.3423 7.3954 19.3713C7.18863 19.4002 7.05078 19.4582 7.05078 19.661C7.22309 19.661 7.32647 19.719 7.46432 19.7769C7.67109 19.8638 7.87786 19.7479 7.87786 19.7479C7.8434 19.719 7.80894 19.6031 7.91232 19.5451C7.94678 19.6031 8.05017 19.632 8.08463 19.5741C7.98124 19.5161 7.98124 19.4582 8.0157 19.3713C8.05017 19.4292 8.18801 19.3713 8.18801 19.3423C8.11909 19.3713 8.08463 19.2843 8.08463 19.2554C8.08463 19.2264 8.11909 19.0526 8.05017 18.9656C8.08463 18.9367 8.22247 18.8787 8.25693 18.8787V18.8497C8.18801 18.8208 8.05017 18.8497 8.05017 18.8208L8.0157 18.6469L7.8434 18.7049C7.80893 18.7049 7.74001 18.589 7.70555 18.56C7.74001 18.589 7.74001 18.7049 7.74001 18.7628C7.60217 18.7628 7.53324 18.7918 7.53324 18.8497C7.49878 18.8497 7.36094 18.9367 7.36094 18.9656C7.36094 18.9656 7.36093 18.9946 7.3954 18.9946C7.25755 18.9656 7.25755 19.0236 7.32647 19.0526ZM7.60217 18.8787C7.5677 18.9656 7.49878 18.9656 7.42986 18.9077C7.42986 18.9077 7.49878 18.8787 7.60217 18.8787Z" fill="#0F0F0F"/>
<path d="M8.05443 18.56H9.17443V19.72H8.05443V18.56ZM6.87141 19.6204C6.83262 19.6204 6.83262 19.6204 6.87141 19.6204C6.83262 19.7399 6.91019 19.8196 6.98775 19.8196C7.1041 19.8196 7.1041 19.7399 7.25923 19.7001V19.6602H7.06532C6.91019 19.7001 6.87141 19.6602 6.87141 19.6204ZM3.8459 18.5729C3.8459 18.4932 3.76834 18.4534 3.53564 18.4932C3.57443 18.6526 3.72956 18.6924 3.8459 18.5729Z" fill="#0F0F0F"/>
<path d="M6.10322 19.4379L5.97398 19.5633C5.93091 19.5946 6.06014 19.6573 6.10322 19.626L6.23245 19.4692C6.23245 19.4692 6.70629 19.6573 6.83552 19.72C6.83552 19.6573 6.8786 19.5946 6.92168 19.5319C6.79245 19.5006 6.49091 19.4379 6.49091 19.4379C6.49091 19.4692 6.44783 19.4692 6.40475 19.4692C6.3186 19.4692 6.27552 19.4065 6.27552 19.3752C6.27552 19.3752 6.36168 19.4065 6.36168 19.3752L6.40475 19.3125L6.53398 19.3438L6.57706 19.2811L6.49091 19.2498L7.05091 18.6854V18.56C7.00783 18.56 6.92168 18.5914 6.8786 18.5914L6.3186 19.1243L6.23245 19.0616L6.18937 19.1243L6.27552 19.187L6.23245 19.2498C6.10322 19.187 6.01706 19.2498 5.97398 19.2811C6.01706 19.2811 6.14629 19.2498 6.14629 19.3125C6.01706 19.2811 5.93091 19.3438 5.93091 19.3752C5.97399 19.4065 6.06014 19.4065 6.10322 19.4379ZM11.686 18.471C11.4921 18.471 11.4146 18.471 11.3758 18.5507C11.4921 18.7101 11.6473 18.6702 11.686 18.471ZM9.26285 19.7512C9.26285 19.7928 9.22013 19.8761 9.09198 19.8761C9.00655 19.8761 8.83568 19.8345 8.70753 19.8345C8.49394 19.8345 8.4085 20.0009 8.4085 20.1258C8.4085 20.3754 8.66481 20.4171 8.66481 20.6667C8.66481 20.8332 8.40851 20.9164 8.19492 20.75C8.1522 20.5419 8.10948 20.3754 7.98133 20.209C7.51144 20.3754 7.38329 20.0425 7.12699 20.0425C6.9134 20.0425 6.61438 20.4171 6.4008 20.5003L6.44351 20.2922H6.48623V20.0841L6.44351 20.209C6.4008 20.1674 6.35808 20.0425 6.35808 20.0425V20.209L6.22993 20.0425C6.22993 20.0425 6.27265 20.1674 6.27265 20.2506L6.10178 20.0841C6.10178 20.0841 6.14449 20.209 6.18721 20.2922C6.14449 20.2922 6.01634 20.1674 6.01634 20.1674C6.01634 20.1674 6.10178 20.2506 6.14449 20.3338C6.05906 20.2922 5.97363 20.2506 5.97363 20.2506C5.97363 20.2506 6.01634 20.2922 6.10178 20.3754H5.93091L6.10178 20.4587L6.27265 20.5003C6.22993 20.5419 6.22993 20.5835 6.27265 20.6251C6.27265 20.5835 6.31536 20.5419 6.44351 20.5419C6.4008 20.5419 6.31536 20.6251 6.35808 20.75C6.4008 20.7084 6.48623 20.6667 6.48623 20.6667L6.44351 20.8748C6.61438 20.9164 6.78525 20.8332 6.78525 20.6251L6.61438 20.5835C6.82797 20.4587 7.08427 20.3338 7.29786 20.3338C7.68231 20.3338 7.93862 20.75 7.93862 20.958C7.93862 20.9997 7.93862 21.1245 7.8959 21.1661C7.81046 21.2493 7.76775 21.2493 7.72503 21.2077C7.76775 21.3326 7.93862 21.3326 7.93862 21.2493C8.02405 21.5406 8.40851 21.2077 8.62209 21.6239C8.62209 21.6239 8.49394 21.6655 8.45122 21.6239C8.32307 21.5406 8.28035 21.6239 8.23764 21.6655C8.36579 21.6239 8.4085 21.7071 8.4085 21.7487C8.32307 21.7071 8.19492 21.7487 8.23764 21.9152C8.28035 21.7903 8.36579 21.8319 8.36579 21.8319C8.32307 21.8736 8.23764 21.9568 8.36579 22.04C8.36579 21.9568 8.4085 21.9152 8.45122 21.9152C8.49394 21.9152 8.57937 21.9152 8.62209 21.8319C8.66481 21.9152 8.79296 21.8736 8.83568 21.8736C8.75024 21.8319 8.66481 21.7903 8.75024 21.7487C8.75024 21.7487 8.92111 21.7903 8.96383 21.6655C8.96383 21.6655 8.79296 21.7487 8.75024 21.6239C8.70753 21.5406 8.70753 21.3742 8.62209 21.3326C8.70753 21.291 8.75024 21.2493 8.66481 21.1245C8.66481 21.3326 8.19492 21.1661 8.19492 20.8748C8.53666 20.958 8.83568 20.8748 8.83568 20.5835C8.83568 20.2922 8.53666 20.1674 8.53666 20.0009C8.53666 19.9177 8.62209 19.8761 8.66481 19.8761C8.79296 19.8761 8.92111 20.0009 8.96383 20.1258C9.00655 20.0841 9.00655 19.9593 8.96383 19.9593C9.00655 19.9593 9.22013 19.9593 9.22013 19.7928C9.30557 19.7928 9.30557 19.7512 9.26285 19.7512C9.30557 19.7096 9.26285 19.7096 9.26285 19.7512Z" fill="#0F0F0F"/>
<path d="M0.330811 0V29H14.8908V0H0.330811ZM11.1423 17.5102C11.1423 17.4315 11.2607 17.2741 11.6158 17.3528C11.7736 17.3921 11.892 17.3134 11.8525 17.2347H11.892C11.9315 17.2741 11.9709 17.3921 11.8525 17.4708C11.6947 17.5495 11.6947 17.7069 11.6947 17.7463C11.6947 17.7856 11.7342 17.7856 11.7342 17.7463C11.8131 17.4708 12.1682 17.4315 12.405 17.5495C12.405 17.7069 12.2471 17.7856 12.1682 17.7856C12.1288 17.7856 12.0498 17.7463 12.0498 17.6676C12.0498 17.6282 12.0498 17.6282 12.0104 17.6676C11.9709 17.7463 12.1288 17.943 12.326 17.825C12.5233 18.0217 12.4444 18.2972 12.4444 18.4152C12.405 18.5726 12.4839 18.7693 12.6417 18.6906C12.6417 18.8087 12.4839 18.9267 12.326 18.848C12.2866 18.8874 12.0498 19.2022 12.4444 19.3202C12.4444 19.3202 12.4839 19.3596 12.4444 19.3596C12.1682 19.4776 12.0498 19.2809 12.0498 19.2809C11.9315 19.5957 12.1287 19.7531 12.1287 19.7531C12.0893 19.7924 11.9709 19.9104 11.7736 19.9498C11.6947 19.9104 11.5763 19.8317 11.5369 19.7137C11.5369 19.7137 11.4974 19.8317 11.5369 19.9891C10.9845 20.0285 10.7872 19.5957 10.3531 19.6744C10.3531 19.3989 10.511 18.8874 11.0634 18.8087C11.5763 18.6906 11.458 18.4939 11.458 18.4939C11.2212 18.4939 11.1028 18.5726 11.1028 18.5726C11.0634 18.4939 11.1028 18.4545 11.1028 18.4545C11.0634 18.4152 11.0634 18.3365 11.0634 18.3365C11.3001 18.3365 11.379 18.2972 11.379 18.2972C11.4185 18.1398 11.3001 17.943 10.945 18.1791C10.8661 18.1004 10.8661 17.9824 10.8661 17.9824C10.8266 17.9824 10.8266 17.943 10.8266 17.9037C10.7477 17.7069 11.0634 17.5495 11.1423 17.5102ZM10.2742 18.0611C10.2742 18.0217 10.2742 18.0217 10.2742 18.0611C10.3137 18.1398 10.4321 18.1791 10.5504 18.1791C10.6688 18.1791 10.7083 18.1398 10.9056 18.1398C10.9056 18.1398 11.0634 18.1398 11.0634 18.1791C11.0634 18.2185 10.9845 18.1791 10.9056 18.2185C10.7083 18.2578 10.6293 18.3365 10.4715 18.3365C10.3531 18.3365 10.2348 18.2185 10.2742 18.0611ZM7.35433 14.7164C7.39379 14.7164 7.43325 14.7558 7.47271 14.7558C7.51216 14.7951 7.55162 14.7951 7.55162 14.7558C7.55162 14.7558 7.59108 14.7164 7.55162 14.6771C7.55162 14.6377 7.51216 14.5984 7.51216 14.559C7.51216 14.4803 7.55162 14.441 7.59108 14.441C7.63054 14.441 7.67 14.4803 7.67 14.559C7.67 14.5984 7.63054 14.6377 7.63054 14.6771C7.59108 14.7164 7.59108 14.7558 7.63054 14.7558C7.63054 14.7558 7.67 14.7951 7.70945 14.7558C7.74891 14.7558 7.78837 14.7164 7.82783 14.7164C7.90674 14.7164 7.9462 14.7558 7.9462 14.7951C7.9462 14.8345 7.90674 14.8738 7.82783 14.8738C7.78837 14.8738 7.74891 14.8345 7.70945 14.8345C7.67 14.7951 7.63054 14.7951 7.63054 14.8345C7.63054 14.8345 7.63054 14.9919 7.67 15.1493C7.78837 15.1886 7.86729 15.2673 7.86729 15.346C7.86729 15.5034 7.70945 15.5821 7.59108 15.6608C7.47271 15.6214 7.31487 15.5034 7.31487 15.346C7.31487 15.2673 7.39379 15.1886 7.51216 15.1493C7.51216 15.0312 7.55162 14.8738 7.55162 14.8345C7.55162 14.8345 7.51216 14.7951 7.47271 14.8345C7.43325 14.8345 7.39379 14.8738 7.35433 14.8738C7.27542 14.8738 7.23596 14.8345 7.23596 14.7951C7.23596 14.7558 7.27542 14.7164 7.35433 14.7164ZM7.78837 15.9362C7.78837 16.0543 7.70945 16.133 7.59108 16.133C7.47271 16.133 7.39379 16.0543 7.39379 15.9362C7.39379 15.8182 7.47271 15.7395 7.59108 15.7395C7.70945 15.7395 7.78837 15.8182 7.78837 15.9362ZM6.01276 15.9756C6.17059 15.9756 6.17059 16.0936 6.32842 16.0936H6.36788C6.36788 16.133 6.32842 16.2117 6.24951 16.2117C6.17059 16.2117 6.17059 16.133 6.09168 16.133C6.05222 16.133 6.01276 16.1723 6.01276 16.251C6.01276 16.4478 6.13114 16.6445 6.28897 16.8019C6.32843 16.7626 6.36788 16.7232 6.40734 16.7232C6.48626 16.7232 6.56517 16.8019 6.56517 16.9199C6.56517 16.9593 6.56517 16.9986 6.52571 17.038C6.56517 17.0773 6.60463 17.0773 6.64409 17.0773C6.723 17.0773 6.80192 17.038 6.80192 16.9199C6.80192 16.6052 6.36788 16.3297 6.36788 15.9362C6.36788 15.7395 6.48626 15.5427 6.76246 15.5427C7.03867 15.5427 6.99921 15.8182 7.23596 15.8182H7.27542C7.27542 15.8182 7.23596 15.9756 7.11758 15.9756C6.99921 15.9756 6.95975 15.7395 6.84138 15.7395C6.80192 15.7395 6.723 15.7788 6.723 15.9362C6.723 16.0543 6.80192 16.251 6.88084 16.4478C6.92029 16.4084 6.95975 16.4084 6.99921 16.4084C7.11758 16.4084 7.1965 16.5265 7.1965 16.6445C7.1965 16.7232 7.15704 16.8019 7.11758 16.8412C7.1965 16.9199 7.23596 16.9986 7.31487 16.9986C7.47271 16.9986 7.55162 16.9199 7.55162 16.8019C7.55162 16.6839 7.35433 16.6445 7.35433 16.4871C7.35433 16.3691 7.43325 16.2904 7.51216 16.2904C7.59108 16.2904 7.63054 16.3297 7.63054 16.3297C7.63054 16.3297 7.67 16.2904 7.74891 16.2904C7.82783 16.2904 7.90674 16.3691 7.90674 16.4871C7.90674 16.6445 7.70945 16.6839 7.70945 16.8019C7.70945 16.9199 7.78837 16.9986 7.9462 16.9986C8.02512 16.9986 8.10403 16.9199 8.14349 16.8412C8.10403 16.8019 8.06458 16.7232 8.06458 16.6445C8.06458 16.5265 8.14349 16.4084 8.26187 16.4084C8.30132 16.4084 8.34078 16.4478 8.38024 16.4478C8.45916 16.251 8.53807 16.0543 8.53807 15.9362C8.53807 15.7788 8.45916 15.7395 8.4197 15.7395C8.30132 15.7395 8.26187 15.9756 8.14349 15.9756C8.02512 15.9756 7.98566 15.8182 7.98566 15.8182H8.02512C8.26187 15.8182 8.22241 15.5427 8.49861 15.5427C8.77482 15.5427 8.89319 15.7395 8.89319 15.9362C8.89319 16.3297 8.45916 16.6052 8.45916 16.9199C8.45916 17.0773 8.53807 17.0773 8.61699 17.0773C8.65645 17.0773 8.6959 17.0773 8.73536 17.038C8.73536 16.9986 8.6959 16.9593 8.6959 16.9199C8.6959 16.8019 8.77482 16.7232 8.85374 16.7232C8.89319 16.7232 8.93265 16.7626 8.97211 16.8019C9.12994 16.6445 9.24832 16.4478 9.24832 16.251C9.24832 16.1723 9.20886 16.133 9.1694 16.133C9.09048 16.133 9.09048 16.2117 9.01157 16.2117C8.93265 16.2117 8.89319 16.133 8.89319 16.0936H8.93265C9.09048 16.0936 9.05103 15.9756 9.24832 15.9756C9.28777 15.9756 9.52452 16.0149 9.52452 16.2904C9.52452 16.7232 9.01157 16.8412 9.12994 17.156C8.89319 17.1167 8.89319 17.3528 8.89319 17.7463C8.89319 17.7463 8.45916 17.5889 7.67 17.5889C6.88084 17.5889 6.4468 17.7463 6.4468 17.7463C6.4468 17.3528 6.4468 17.156 6.21005 17.156C6.32843 16.8412 5.81547 16.6839 5.81547 16.2904C5.77601 15.9756 5.9733 15.9756 6.01276 15.9756ZM4.90794 18.0611C4.9474 18.0217 4.9474 18.0217 4.90794 18.0611C4.98685 18.2578 4.86848 18.3365 4.71065 18.3365C4.55282 18.3365 4.4739 18.2185 4.27661 18.2185C4.19769 18.2185 4.11878 18.2185 4.11878 18.1791C4.11878 18.1398 4.23715 18.1398 4.27661 18.1398C4.4739 18.1398 4.51336 18.1791 4.63173 18.1791C4.78956 18.1791 4.90794 18.1398 4.90794 18.0611ZM2.61937 18.6906C2.77721 18.7693 2.85612 18.6119 2.81666 18.4152C2.77721 18.3365 2.69829 18.0611 2.93504 17.825C3.13233 17.943 3.29016 17.7463 3.2507 17.6676C3.2507 17.6282 3.21124 17.6282 3.21124 17.6676C3.21124 17.7463 3.13233 17.7856 3.09287 17.7856C3.01395 17.7856 2.85612 17.7069 2.85612 17.5495C3.09287 17.3921 3.44799 17.4708 3.52691 17.7463C3.52691 17.7856 3.56637 17.7856 3.56637 17.7463C3.56637 17.7069 3.56637 17.5495 3.40853 17.4708C3.2507 17.3921 3.32962 17.2741 3.36908 17.2347H3.40853C3.36908 17.3134 3.48745 17.3921 3.64528 17.3528C4.0004 17.3134 4.11878 17.4315 4.11878 17.5102C4.19769 17.5102 4.4739 17.7069 4.4739 17.7463C4.4739 17.7463 4.4739 17.825 4.43444 17.825C4.43444 17.825 4.43444 17.943 4.35553 18.0217C4.0004 17.7856 3.88203 18.0217 3.92149 18.1398C3.92149 18.1398 4.0004 18.1791 4.23715 18.1791C4.23715 18.1791 4.23715 18.2578 4.19769 18.2972C4.19769 18.2972 4.23715 18.3758 4.19769 18.4152C4.19769 18.4152 4.07932 18.3365 3.84257 18.3365C3.84257 18.3365 3.68474 18.5332 4.23715 18.6513C4.75011 18.7693 4.9474 19.2415 4.9474 19.517C4.51336 19.4383 4.31607 19.8711 3.76366 19.8317C3.80311 19.7137 3.76366 19.5563 3.76366 19.5563C3.7242 19.6744 3.60582 19.7531 3.52691 19.7924C3.32962 19.7531 3.21124 19.6744 3.17179 19.5957C3.17179 19.5957 3.36908 19.4383 3.2507 19.1235C3.2507 19.1235 3.13233 19.3202 2.85612 19.2022C2.81666 19.2022 2.85612 19.1628 2.85612 19.1628C3.21124 19.0448 2.9745 18.73 2.9745 18.6906C2.77721 18.9267 2.61937 18.8087 2.61937 18.6906C2.61937 18.6513 2.61937 18.6513 2.61937 18.6906ZM5.30252 24.5929C5.30252 25.1438 4.39498 24.6323 3.52691 24.5536C2.81666 24.5142 2.57992 24.711 2.57992 24.711L2.69829 23.9634C2.69829 23.924 2.85612 23.806 3.36908 23.806C3.96095 23.806 4.27661 23.924 4.39498 23.9634V24.3569C4.39498 24.4355 4.43444 24.4749 4.51336 24.5142C4.51336 24.4749 4.63173 24.2782 5.30252 24.2782V24.5929ZM4.4739 21.6811C4.39498 21.6024 3.96095 21.445 3.7242 21.3663C3.80311 21.3663 3.84257 21.327 3.84257 21.2483C3.84257 21.209 3.84257 21.1303 3.76366 21.0909C3.88203 20.9729 4.11878 20.8942 4.23715 20.8942C4.71065 20.8942 5.10523 21.5237 5.26306 21.5237C5.30252 21.5237 5.30252 21.5237 5.34198 21.4844C5.34198 21.6811 5.2236 21.6811 5.18414 21.6811C5.14469 21.6811 5.10523 21.6811 5.10523 21.6418V21.6811C5.10523 21.9172 4.86848 22.1533 4.86848 22.1533C4.98685 22.2714 5.2236 22.4288 5.30252 22.3501C5.34198 22.3107 5.46035 22.0746 5.65764 22.2714C5.53927 22.2714 5.46035 22.3501 5.49981 22.4681C5.65764 22.3501 5.85493 22.3501 5.85493 22.6255C5.73655 22.4681 5.61818 22.5862 5.57872 22.5862C5.6971 22.5862 5.85493 22.7436 5.6971 22.9403C5.6971 22.7829 5.57872 22.7829 5.53927 22.7829C5.38143 22.7829 5.30252 22.9009 5.18414 22.7829C5.14469 22.9796 4.9474 22.9403 4.86848 22.9403C4.9474 22.9009 4.98685 22.8223 4.98685 22.7829C4.98685 22.6649 4.75011 22.5075 4.67119 22.5075C4.59227 22.5075 4.55282 22.5862 4.43444 22.5862C4.35553 22.5862 4.31607 22.5468 4.23715 22.4681C4.27661 22.4681 4.43444 22.5075 4.4739 22.2714C4.59227 21.9566 4.59227 21.7992 4.4739 21.6811ZM4.59227 24.2388C4.55282 24.2388 4.55282 24.2388 4.59227 24.2388L4.55282 23.4912C4.55282 23.2551 6.05222 23.137 7.59108 23.137C9.1694 23.137 10.6293 23.2551 10.6293 23.4912V24.2388C10.6293 24.2388 10.6293 24.2782 10.5899 24.2388C10.3926 24.0421 8.97211 23.9634 7.55162 23.9634C6.21005 23.924 4.75011 24.0027 4.59227 24.2388ZM9.48506 22.232C9.6429 22.0353 9.80073 22.2714 9.84019 22.3107C9.9191 22.3894 10.1953 22.232 10.2742 22.114C10.2742 22.114 10.0375 21.8779 10.0375 21.6418V21.6024C9.99802 21.6024 9.99802 21.6418 9.95856 21.6418C9.9191 21.6418 9.80073 21.6418 9.80073 21.445C9.84019 21.4844 9.84019 21.4844 9.87964 21.4844C10.0769 21.4844 10.4715 20.8548 10.9056 20.8548C11.0239 20.8548 11.2607 20.9335 11.379 21.0516C11.3396 21.0909 11.3001 21.1696 11.3001 21.209C11.3001 21.2877 11.379 21.327 11.4185 21.327C11.1818 21.4057 10.7477 21.5631 10.6688 21.6418C10.5504 21.7205 10.5899 21.9172 10.6293 22.1927C10.7083 22.4288 10.8266 22.3894 10.8661 22.3894C10.7872 22.4681 10.7477 22.5075 10.6688 22.5075C10.5504 22.5075 10.511 22.4288 10.4321 22.4288C10.3137 22.4288 10.1164 22.5862 10.1164 22.7042C10.1164 22.7829 10.1559 22.8223 10.2348 22.8616C10.1953 22.8616 9.95856 22.9009 9.9191 22.7042C9.80073 22.8616 9.68236 22.7042 9.56398 22.7042C9.48507 22.7042 9.40615 22.7436 9.40615 22.8616C9.24832 22.6255 9.44561 22.5075 9.52452 22.5075C9.48506 22.4681 9.32723 22.3894 9.24832 22.5468C9.24832 22.2714 9.44561 22.2714 9.60344 22.3894C9.68235 22.3107 9.60344 22.232 9.48506 22.232ZM11.6947 24.5929C10.8266 24.6323 9.9191 25.1832 9.9191 24.6323V24.3175C10.5899 24.3175 10.7083 24.5536 10.7083 24.5536C10.7872 24.5142 10.8266 24.4749 10.8266 24.3962V24.0027C10.945 23.9634 11.2212 23.8453 11.8525 23.8453C12.3655 23.8453 12.5233 23.9634 12.5233 24.0027L12.6417 24.7503C12.6417 24.711 12.4444 24.5142 11.6947 24.5929ZM13.5887 19.5563C13.5098 19.5563 13.4309 19.517 13.3914 19.517C13.4703 19.635 13.4703 19.7924 13.4309 19.8711H13.3914C13.3519 19.6744 13.1547 19.4776 12.9179 19.4776C12.6022 19.4776 12.6022 19.7137 12.6022 19.7924C12.6022 20.1465 13.2336 20.422 13.2336 20.9335C13.2336 21.445 12.6812 21.5631 12.3655 21.4844C12.3655 21.9959 12.9574 22.1533 12.9968 21.7992C12.9968 21.7992 12.9968 21.7598 13.0363 21.7992C13.1152 21.9959 13.0757 22.1533 12.839 22.1927V22.232C13.0757 22.3894 12.9574 22.9403 12.9179 23.0977C12.9179 23.3338 13.1547 23.2944 13.1547 23.2944V23.3338C12.9968 23.5305 12.7601 23.3338 12.7601 23.3338C12.6022 23.3731 12.6812 23.5305 12.7995 23.5699V23.6092C12.7601 23.6092 12.5233 23.6486 12.4839 23.4518C12.3655 23.5699 12.2077 23.5305 12.1682 23.5305C12.1288 23.4912 11.892 23.4125 11.8525 23.6879C11.6947 23.4912 11.8525 23.3338 11.9709 23.3338C11.9709 23.3338 11.8131 23.2157 11.6947 23.3731C11.6947 23.0977 11.892 23.0583 12.0498 23.1764C12.0498 23.137 12.0893 22.9796 11.892 23.019C12.0498 22.8223 12.2077 23.019 12.2471 23.0583C12.326 23.137 12.5233 23.0977 12.5233 23.0977C12.4839 22.1533 11.6158 22.4681 11.4974 22.0353C11.458 22.1533 11.1818 22.1533 11.1423 21.9566C11.379 22.1927 11.9315 21.445 11.1818 20.8155C10.5504 20.3039 9.95856 20.5794 9.76127 20.7368C9.76127 20.8155 9.80073 20.8548 9.84019 20.8548C9.76127 20.8942 9.68235 20.8548 9.6429 20.8155C9.52452 20.8942 9.6429 21.0122 9.68236 21.0516V21.0909C9.56398 21.1303 9.44561 20.9729 9.44561 20.8942H9.40615V21.445C9.40615 22.232 8.49861 22.3107 7.55162 22.9796C6.56517 22.3107 5.6971 22.232 5.6971 21.445V20.8942H5.65764C5.65764 20.9729 5.53927 21.0909 5.42089 21.0909V21.0516C5.46035 21.0122 5.57872 20.8942 5.46035 20.8155C5.42089 20.8548 5.34198 20.8942 5.26306 20.8548C5.30252 20.8548 5.34198 20.8155 5.34198 20.7368C5.10523 20.5794 4.55282 20.2646 3.92149 20.8155C3.17179 21.445 3.7242 22.1927 3.96095 21.9566C3.92149 22.1927 3.60582 22.1533 3.60582 22.0353C3.48745 22.5075 2.65883 22.1533 2.57992 23.0977C2.57992 23.0977 2.77721 23.137 2.85612 23.0583C2.89558 23.019 3.01395 22.8616 3.21124 23.019C2.9745 23.019 3.05341 23.1764 3.05341 23.1764C3.21124 23.0583 3.40853 23.0977 3.40853 23.3731C3.29016 23.2157 3.13233 23.3338 3.13233 23.3338C3.2507 23.3338 3.40853 23.4912 3.2507 23.6879C3.21124 23.4518 3.01395 23.5305 2.93504 23.5305C2.89558 23.5305 2.73775 23.6092 2.61937 23.4518C2.57992 23.6486 2.34317 23.6092 2.30371 23.6092V23.5699C2.42208 23.4912 2.501 23.3731 2.34317 23.3338C2.34317 23.3338 2.14588 23.5305 1.94859 23.3338V23.2944C1.94859 23.2944 2.22479 23.3338 2.18534 23.0977C2.18534 22.9403 2.06696 22.3894 2.26425 22.232C2.26425 22.232 2.30371 22.232 2.26425 22.1927C2.0275 22.1533 1.98805 21.9959 2.06696 21.7992C2.06696 21.7598 2.10642 21.7992 2.10642 21.7992C2.10642 22.1533 2.69829 21.9959 2.73775 21.4844C2.42208 21.5631 1.86967 21.445 1.86967 20.9335C1.86967 20.422 2.501 20.1465 2.501 19.7924C2.501 19.7137 2.501 19.4776 2.18534 19.4776C1.94859 19.4776 1.7513 19.6744 1.71184 19.8711H1.67238C1.63292 19.8318 1.63292 19.635 1.71184 19.517C1.67238 19.517 1.59347 19.5563 1.51455 19.5563C1.31726 19.5563 1.19889 19.4383 1.19889 19.2809C1.19889 19.1628 1.23834 19.1235 1.23834 19.0841C1.23834 19.0841 1.23834 19.0448 1.2778 19.0841C1.31726 19.1235 1.35672 19.2809 1.55401 19.2809H2.0275C2.57992 19.2809 2.61937 19.7137 2.61937 19.8317C2.61937 20.2646 2.06696 20.4613 2.06696 20.9335C2.06696 21.0516 2.10642 21.209 2.42208 21.209C2.54046 21.209 2.65883 21.1696 2.73775 21.1303C2.73775 21.1303 2.85612 20.3433 3.2507 20.0678C3.2507 20.0678 3.7242 20.3039 4.15824 20.0285C4.51336 19.8318 4.67119 19.7137 4.9474 19.9104C5.26306 20.1072 5.49981 20.3433 5.53927 20.3433H5.61818V18.5332C5.46035 18.5332 5.46035 18.6513 5.46035 18.6906C5.46035 18.73 5.49981 18.7693 5.42089 18.8874H5.38143C5.38143 18.848 5.34198 18.8087 5.30252 18.8087C5.26306 18.8087 5.02631 18.9661 4.86848 19.1628C4.86848 19.1628 4.75011 18.848 4.51336 18.7693C4.67119 18.73 5.26306 18.6119 5.26306 18.3365C5.26306 18.2578 5.38143 18.2185 5.42089 18.2185C5.42089 18.2185 5.53927 17.9824 5.6971 18.1004V18.1398C5.61818 18.1398 5.57872 18.2578 5.57872 18.3365C5.65764 18.2972 5.81547 18.2578 6.01276 18.2185V18.8087H6.24951V18.1791C6.56517 18.1398 6.95975 18.0611 7.43325 18.0611C8.34078 18.0611 9.09048 18.2578 9.28777 18.3365C9.28777 18.2578 9.24832 18.1398 9.1694 18.1398V18.1004C9.36669 17.9824 9.44561 18.2185 9.44561 18.2185C9.52452 18.2185 9.60344 18.2185 9.60344 18.3365C9.60344 18.6119 10.2348 18.7693 10.3531 18.7693C10.1164 18.848 9.99802 19.1628 9.99802 19.1628C9.80073 18.9661 9.60344 18.8087 9.56398 18.8087C9.52452 18.8087 9.48506 18.8874 9.48506 18.8874C9.40615 18.73 9.44561 18.73 9.44561 18.6906C9.44561 18.6513 9.44561 18.5332 9.28777 18.5332V20.3433H9.36669C9.40615 20.3433 9.6429 20.1072 9.95856 19.9104C10.2742 19.7137 10.4321 19.8318 10.7477 20.0285C11.1818 20.2646 11.6553 20.0678 11.6553 20.0678C12.0498 20.3433 12.1682 21.1303 12.1682 21.1303C12.2471 21.1696 12.3655 21.209 12.4839 21.209C12.7601 21.209 12.839 21.0122 12.839 20.9335C12.839 20.4613 12.2866 20.2646 12.2866 19.8317C12.2866 19.7137 12.326 19.2809 12.8785 19.2809H13.3519C13.5492 19.2809 13.6282 19.1235 13.6282 19.0841C13.6282 19.0448 13.6676 19.0841 13.6676 19.0841C13.6676 19.1235 13.7071 19.1628 13.7071 19.2809C13.9044 19.4383 13.786 19.5563 13.5887 19.5563Z" fill="#0F0F0F"/>
<path d="M8.05456 22.04H9.17456V23.2H8.05456V22.04ZM7.05091 21.1686C6.98091 21.1686 6.91091 21.0604 6.98091 20.9521C6.91091 20.9161 6.84091 20.88 6.80591 20.88C6.56091 20.88 6.38591 21.1686 6.35091 21.2046C6.31591 21.2407 6.24591 21.3128 6.21091 21.2407C6.21091 21.3489 6.31591 21.3489 6.35091 21.3489C6.35091 21.4571 6.42091 21.6735 6.42091 21.6735C6.42091 21.6735 6.31591 21.7817 6.24591 21.7817C6.21091 21.7817 6.17591 21.6735 6.10591 21.6735C6.07091 21.6735 6.07091 21.6735 6.03591 21.7096C6.10591 21.7096 6.14091 21.7457 6.10591 21.7817C6.03591 21.7096 5.93091 21.7457 5.93091 21.8539C5.96591 21.7817 6.07091 21.8178 6.07091 21.8539C6.03591 21.8539 5.93091 21.926 6.00091 22.0342C6.00091 21.9982 6.00091 21.9621 6.07091 21.9621C6.14091 21.9621 6.21091 22.0342 6.24591 21.9621C6.28091 22.0703 6.35091 22.0342 6.38591 22.0342C6.35091 21.9982 6.31591 21.9621 6.31591 21.9621C6.31591 21.89 6.42091 21.8178 6.49091 21.8178C6.52591 21.8178 6.52591 21.8539 6.59591 21.8539C6.63091 21.8539 6.66591 21.8539 6.70091 21.8178C6.63091 21.8539 6.56091 21.7457 6.56091 21.6014C6.56091 21.3489 6.70091 21.2768 7.05091 21.1686Z" fill="#0F0F0F"/>
</svg>
