<svg fill="none" height="29" viewBox="0 0 82 29" width="82" xmlns="http://www.w3.org/2000/svg"><g fill="#0f0f0f"><path d="m18.2249 18.9328c.1373-.0356.206-.1067.2404-.249l.1717-2.0989-.2404-.0711v-.1067c.1717-.0356.4121-.0356.5495-.0356h.1374l.6183 1.9921.5839-1.9921h.1717c.1374 0 .3091 0 .4808.0356v.1067l-.2404.0711.1717 2.2412.2405.0355v.1067c-.1031.0356-.2405.0712-.3778.0712-.1718 0-.3092 0-.4465-.0356v-.0711c.1717-.0356.2404-.1423.2404-.3202l-.1031-1.8498-.6869 2.2767-.1374.0356-.7213-2.2767-.1373 2.0632.2404.0712v.1067c-.1718.0356-.2748.0711-.4465.0711-.1031 0-.2061 0-.3091-.0355zm3.1255 0c.103-.0356.2061-.1067.2061-.2135v-1.3873l-.2404-.1067v-.0712c.1717-.0356.3434-.0711.4808-.0711h.1374l-.0344.2134v1.5652l.2061.0712v.0711c-.1374.0356-.2404.0712-.4465.0712-.103 0-.2061 0-.3091-.0356zm.1717-2.4902c0-.1423.1031-.249.2405-.249.103 0 .206.0712.206.2135s-.103.249-.206.249c-.1374.0356-.2405-.0712-.2405-.2135zm.8587 2.4902c.103-.0356.2061-.1067.2061-.2135v-1.3873l-.2404-.1067v-.1068c.1717-.0355.3434-.0711.4808-.0711h.103v.2134c.1374-.1423.3435-.2134.5839-.2134.3435 0 .5496.2134.5496.6403v1.1384l.2061.0711v.0711c-.1031.0356-.2405.0712-.4122.0712-.0687 0-.1717 0-.2404-.0356v-.0711c.103-.0356.1374-.1067.1374-.2846v-.7826c0-.3913-.1718-.5692-.4122-.5692-.1717 0-.3091.0711-.4122.1423v1.3874l.2061.0711v.0711c-.1374.0356-.2747.0712-.4465.0712-.103 0-.2061 0-.3091-.0356zm2.1295 0c.103-.0356.2061-.1067.2061-.2135v-1.3873l-.2405-.1067v-.0712c.1718-.0356.3435-.0711.4809-.0711h.1374l-.0344.2134v1.5652l.2061.0712v.0711c-.1374.0356-.2404.0712-.4465.0712-.103 0-.2061 0-.3091-.0356zm.1717-2.4902c0-.1423.1031-.249.2405-.249.103 0 .206.0712.206.2135s-.103.249-.206.249c-.1374.0356-.2405-.0712-.2405-.2135zm.8587 2.1344c.1717.1779.3435.2491.5495.2491.2061 0 .3435-.1068.3435-.2491s-.0687-.249-.3435-.3557l-.206-.0711c-.2405-.1068-.3435-.2846-.3435-.4981 0-.3201.2748-.6047.6869-.6047.3091 0 .4465.1067.4465.249 0 .0711 0 .1067-.0343.1779-.1374-.1068-.3091-.1423-.4465-.1423-.2404 0-.3778.1067-.3778.249s.0687.2134.3091.3201l.2061.0712c.2747.1067.3778.249.3778.498 0 .3202-.3091.6048-.7213.6048-.3435 0-.5152-.1068-.5152-.3202.0343-.0711.0343-.1423.0687-.1779zm1.6143-.6759v-.5336h-.2061v-.1422l.4122-.4269h.1374v.3557h.5152l-.0344.2134h-.5152v.9605c0 .3202.103.4625.2404.4625.1031 0 .2061-.0356.3092-.1067h.0343c0 .249-.1374.3557-.4122.3557-.3091 0-.4808-.1779-.4808-.5692-.0344-.1778 0-.3913 0-.5692zm.996 1.0317c.1031-.0356.2061-.1067.2061-.2135v-1.3873l-.2404-.1067v-.1068c.1717-.0355.3435-.0711.4808-.0711h.1031v.2846l.103-.1423c.1031-.1067.2061-.1779.3435-.1779s.2061.0712.2061.1779c0 .0711-.0344.1778-.0687.249-.0687-.0712-.1718-.1067-.2404-.1067-.1374 0-.2405.0711-.3435.1778v1.3163l.2748.0711v.0711c-.1374.0356-.2748.0712-.4809.0712-.103 0-.2404 0-.3091-.0356v-.0711zm1.9921-.0356-.6182-1.6008-.1374-.1067v-.1067h.7213v.1067l-.2061.1067.4122 1.2451.3778-1.2451-.2061-.1067v-.1067h.5839v.1067l-.103.1067-.5496 1.6008c-.3091.8893-.6182 1.1739-.8243 1.1739-.1717 0-.2404-.0711-.2404-.3201h.1717c.1717 0 .4122-.2135.5839-.6404zm2.6447-1.8854c.4809 0 .8587.3913.8587.9605 0 .6759-.4465 1.1028-.9274 1.1028-.4808 0-.8586-.3558-.8586-.9605 0-.6759.4465-1.1028.9273-1.1028zm-.0343 1.8143c.2748 0 .5495-.2491.5495-.8182 0-.4625-.2404-.7471-.5152-.7471-.2747 0-.5495.2846-.5495.8182-.0344.498.2061.7471.5152.7471zm1.2021.1067c.1031-.0356.2061-.1067.2061-.2135v-1.3518h-.2061v-.1422l.2061-.1068v-.3201c0-.4269.2748-.7471.7556-.7471.2748 0 .3778.0712.3778.2135 0 .0355 0 .1067-.0343.1423-.1374-.0356-.3778-.0712-.5152-.0712-.1717 0-.3091.1423-.3091.4625v.3557h.5152l-.0344.2134h-.4808v1.4941l.2404.0712v.0711c-.1374.0356-.2748.0712-.4808.0712-.1031 0-.2061 0-.3092-.0356v-.1067zm1.8547-.0356c.1718-.0356.2405-.1067.2405-.3202v-1.9921l-.2405-.1067v-.1067h1.477l-.0344.6047h-.103v-.0711c-.0344-.2134-.1031-.2846-.3435-.2846h-.4122v.9249h.4122c.1717 0 .2404-.0356.2748-.1423l.0343-.1067h.1031v.7826h-.1031l-.0343-.1067c-.0344-.1423-.1031-.2134-.2061-.2134h-.4809v.9604h.4809c.2061 0 .3091-.0711.3778-.2134l.0344-.0712h.103l-.0687.5336h-1.5113zm2.7478-1.8498c.103 0 .2061 0 .2748.0356v-.7115l-.2748-.1067v-.1067c.1717-.0356.3778-.0712.4808-.0712h.1374l-.0343.2134v2.3479c.0343.0711.0687.1779.1374.249-.0687.0711-.1718.1423-.2748.1779-.0687-.0712-.1374-.1423-.2061-.249-.1374.1422-.3435.249-.5152.249-.4122 0-.7213-.3558-.7213-.8894.0687-.747.5152-1.1383.9961-1.1383zm.3091 1.6008v-1.3518c-.0687-.0356-.1717-.0356-.2748-.0356-.3434 0-.5839.2846-.5839.8538 0 .4624.2405.6759.4809.6759.103 0 .2748-.0356.3778-.1423zm.9274-1.3162-.2405-.1067v-.0712c.1718-.0356.3435-.0711.4465-.0711h.1374l-.0343.2134v.9249c0 .4269.1374.5692.3778.5692.1374 0 .3091-.0712.3778-.1067v-1.3163l-.2404-.1067v-.0711c.1717-.0356.3434-.0712.4465-.0712h.1374l-.0344.2135v1.3873c.0344.0712.1031.1423.1374.2135-.0687.0711-.1717.1423-.2748.1778-.0687-.0711-.1373-.1423-.1717-.249-.103.1067-.3091.2135-.5839.2135-.3435 0-.5495-.2135-.5495-.6759v-1.0672zm2.782-.2846c.3092 0 .4122.1067.4122.249 0 .0711-.0343.1423-.0343.2134-.1374-.1067-.3092-.1778-.4466-.1778-.2747 0-.5152.2846-.5152.747 0 .498.2405.7471.5496.7471.1374 0 .3435-.0712.4465-.1779 0 .0356.0343.0711.0343.1067 0 .1779-.206.3557-.5838.3557-.4466 0-.79-.3557-.79-.9249 0-.747.4121-1.1383.9273-1.1383zm1.6487.8893v-.1067c0-.4269-.1031-.5336-.3435-.5336-.2061 0-.4121.1067-.5839.249v-.1067c0-.249.1718-.4269.6526-.4269.4122 0 .6526.2135.6526.5336v1.1028c.0343.0711.103.1423.1717.2134-.0687.0712-.1717.1423-.2747.2135-.0687-.0356-.1374-.1068-.1718-.2135-.103.1067-.3091.2135-.5495.2135-.3091 0-.5152-.1779-.5152-.4625-.0687-.3557.3091-.6759.9617-.6759zm-.3778.8894c.1374 0 .2747-.0356.3778-.1068v-.5691c-.4465 0-.687.1778-.687.4268 0 .1423.1031.2491.3092.2491zm1.3051-.925v-.5336h-.206v-.1422l.4121-.4269h.1374v.3557h.5152l-.0343.2134h-.5152v.9605c0 .3202.103.4625.2404.4625.103 0 .2061-.0356.3091-.1067h.0344c0 .249-.1374.3557-.4122.3557-.3091 0-.4809-.1779-.4809-.5692zm1.0304 1.0317c.1031-.0356.2061-.1067.2061-.2135v-1.3873l-.2404-.1067v-.0712c.1717-.0356.3435-.0711.4808-.0711h.1374l-.0343.2134v1.5652l.2061.0712v.0711c-.1374.0356-.2405.0712-.4465.0712-.1031 0-.2061 0-.3092-.0356zm.1374-2.4902c0-.1423.1031-.249.2405-.249.103 0 .206.0712.206.2135s-.103.249-.206.249c-.1374.0356-.2405-.0712-.2405-.2135zm1.7861.5692c.4808 0 .8586.3913.8586.9605 0 .6759-.4465 1.1028-.9273 1.1028-.4809 0-.8587-.3558-.8587-.9605 0-.6759.4465-1.1028.9274-1.1028zm-.0344 1.8143c.2748 0 .5496-.2491.5496-.8182 0-.4625-.2405-.7471-.5152-.7471-.2748 0-.5496.2846-.5496.8182-.0343.498.2404.7471.5152.7471zm1.2021.1067c.1031-.0356.2061-.1067.2061-.2135v-1.3873l-.2404-.1067v-.1068c.1717-.0355.3435-.0711.4808-.0711h.1031v.2134c.1374-.1423.3435-.2134.5839-.2134.3434 0 .5495.2134.5495.6403v1.1384l.2061.0711v.0711c-.103.0356-.2404.0712-.4122.0712-.0686 0-.1717 0-.2404-.0356v-.0711c.1031-.0356.1374-.1067.1374-.2846v-.7826c0-.3913-.1717-.5692-.4122-.5692-.1717 0-.3091.0711-.4121.1423v1.3874l.2061.0711v.0711c-.1374.0356-.2748.0712-.4465.0712-.1031 0-.2061 0-.3092-.0356zm2.473-.3913c.1374 0 .2061.1067.2061.249 0 .3913-.3091.7114-.4809.747l-.103-.0356c.1717-.1778.2404-.3557.2404-.6047l-.1374-.1779c.1031-.0711.2061-.1778.2748-.1778zm2.6103-2.17c.2748 0 .4466.0356.5839.1067l-.0343.5692h-.1031v-.0712c-.0686-.249-.1717-.3557-.4465-.3557-.3778 0-.7556.4269-.7556 1.1384 0 .747.3778 1.1027.7213 1.1027.3091 0 .4465-.1067.5152-.3201l.0343-.1068h.1031l-.0344.5336c-.1373.0712-.3778.1423-.6869.1423-.5839 0-1.0647-.4268-1.0647-1.2806-.0344-.9249.5495-1.4585 1.1677-1.4585zm1.0991.9605-.2404-.1067v-.0712c.1717-.0356.3435-.0711.4465-.0711h.1374l-.0343.2134v.9249c0 .4269.1374.5692.3778.5692.1374 0 .3091-.0712.3778-.1067v-1.3163l-.2404-.1067v-.0711c.1717-.0356.3434-.0712.4465-.0712h.1374l-.0344.2135v1.3873c.0343.0712.103.1423.1374.2135-.0687.0711-.1717.1423-.2748.1778-.0687-.0711-.1374-.1423-.1717-.249-.1031.1067-.3091.2135-.5839.2135-.3435 0-.5496-.2135-.5496-.6759v-1.0672zm1.8891 1.6008c.103-.0356.2061-.1067.2061-.2135v-2.3834l-.2404-.1067v-.1067c.1717-.0356.3778-.0712.4808-.0712h.1374l-.0343.2135v2.5257l.206.0711v.0712c-.1374.0355-.2747.0711-.4465.0711-.103 0-.2061 0-.3091-.0356zm1.1678-1.0317v-.5336h-.2061v-.1422l.4122-.4269h.1374v.3557h.5152l-.0344.2134h-.5152v.9605c0 .3202.1031.4625.2404.4625.1031 0 .2061-.0356.3092-.1067h.0343c0 .249-.1374.3557-.4122.3557-.3091 0-.4808-.1779-.4808-.5692zm1.2021-.5691-.2404-.1067v-.0712c.1717-.0356.3435-.0711.4465-.0711h.1374l-.0344.2134v.9249c0 .4269.1374.5692.3779.5692.1373 0 .3091-.0712.3778-.1067v-1.3163l-.2405-.1067v-.0711c.1718-.0356.3435-.0712.4466-.0712h.1373l-.0343.2135v1.3873c.0343.0712.103.1423.1374.2135-.0687.0711-.1718.1423-.2748.1778-.0687-.0711-.1374-.1423-.1717-.249-.1031.1067-.3092.2135-.5839.2135-.3435 0-.5496-.2135-.5496-.6759v-1.0672zm1.8891 1.6008c.103-.0356.2061-.1067.2061-.2135v-1.3873l-.2405-.1067v-.1068c.1718-.0355.3435-.0711.4809-.0711h.103v.2846l.1031-.1423c.103-.1067.2061-.1779.3434-.1779.1374 0 .2061.0712.2061.1779 0 .0711-.0343.1778-.0687.249-.0687-.0712-.1717-.1067-.2404-.1067-.1374 0-.2404.0711-.3435.1778v1.3163l.2748.0711v.0711c-.1374.0356-.2748.0712-.4808.0712-.1031 0-.2405 0-.3092-.0356v-.0711zm2.0608-1.921c.4122 0 .6869.2846.6869.7826v.249h-1.1678c0 .4625.2405.7115.5839.7115.2061 0 .4122-.0711.5496-.1779v.1068c0 .1778-.2748.3557-.6869.3557-.4466 0-.8244-.3557-.8244-.9249.0344-.7115.4465-1.1028.8587-1.1028zm.3778.8182c0-.3913-.1717-.6047-.4121-.6047-.2061 0-.4466.2845-.4466.6047zm2.3012.1067v-.1067c0-.4269-.103-.5336-.3434-.5336-.2061 0-.4122.1067-.5839.249v-.1067c0-.249.1717-.4269.6526-.4269.4121 0 .6525.2135.6525.5336v1.1028c.0344.0711.1031.1423.1718.2134-.0687.0712-.1718.1423-.2748.2135-.0687-.0356-.1374-.1068-.1717-.2135-.1031.1067-.3091.2135-.5496.2135-.3091 0-.5152-.1779-.5152-.4625-.0687-.3557.3091-.6759.9617-.6759zm-.3778.8894c.1374 0 .2748-.0356.3778-.1068v-.5691c-.4465 0-.6869.1778-.6869.4268 0 .1423.103.2491.3091.2491zm1.1335.1067c.103-.0356.206-.1067.206-.2135v-1.3873l-.2404-.1067v-.1068c.1717-.0355.3435-.0711.4809-.0711h.103v.2134c.1374-.1423.3435-.2134.5839-.2134.3435 0 .5495.2134.5495.6403v1.1384l.2061.0711v.0711c-.103.0356-.2404.0712-.4121.0712-.0687 0-.1718 0-.2405-.0356v-.0711c.1031-.0356.1374-.1067.1374-.2846v-.7826c0-.3913-.1717-.5692-.4121-.5692-.1718 0-.3092.0711-.4122.1423v1.3874l.2061.0711v.0711c-.1374.0356-.2748.0712-.4465.0712-.1031 0-.2061 0-.3091-.0356zm3.0225-1.8854c.103 0 .206 0 .2747.0356v-.7115l-.2747-.1067v-.1067c.1717-.0356.3778-.0712.4808-.0712h.1374l-.0343.2134v2.3479c.0343.0711.0687.1779.1373.249-.0686.0711-.1717.1423-.2747.1779-.0687-.0712-.1374-.1423-.2061-.249-.1374.1422-.3435.249-.5152.249-.4122 0-.7213-.3558-.7213-.8894.0687-.747.4809-1.1383.9961-1.1383zm.2747 1.6008v-1.3518c-.0687-.0356-.1717-.0356-.2747-.0356-.3435 0-.5839.2846-.5839.8538 0 .4624.2404.6759.4808.6759.1374 0 .3091-.0356.3778-.1423zm-52.1382 4.3399h.103l.0344.1067c.0687.2135.1717.3202.4808.3202.3092 0 .5152-.1779.5152-.4269 0-.1423-.103-.3201-.3434-.4624l-.3778-.2135c-.2405-.1423-.3435-.3557-.3435-.6047 0-.3913.3778-.7115.8243-.7115.2404 0 .4122.0356.5496.1067l-.0344.5692h-.103v-.0711c-.0344-.249-.1718-.3202-.4122-.3202-.2748 0-.4808.1779-.4808.3913 0 .1779.0687.2846.3091.4269l.3778.2134c.2748.1423.4122.3558.4122.6404 0 .4268-.4122.7826-.8931.7826-.2404 0-.4465-.0356-.6182-.0712zm2.679-1.3162c.3092 0 .4122.1067.4122.249 0 .0712-.0343.1423-.0343.2135-.1374-.1067-.3092-.1779-.4466-.1779-.2747 0-.5152.2846-.5152.747 0 .4981.2405.7471.5496.7471.1374 0 .3435-.0712.4465-.1779 0 .0356.0343.0712.0343.1067 0 .1779-.206.3558-.5838.3558-.4466 0-.79-.3558-.79-.9249 0-.7471.4121-1.1384.9273-1.1384zm.687 1.8854c.103-.0356.2061-.1067.2061-.2134v-1.3874l-.2405-.1067v-.0712c.1718-.0355.3435-.0711.4809-.0711h.1374l-.0344.2134v1.5653l.2061.0711v.0712c-.1374.0355-.2404.0711-.4465.0711-.103 0-.2061 0-.3091-.0356zm.1717-2.4901c0-.1423.103-.249.2404-.249.1031 0 .2061.0711.2061.2134s-.103.249-.2061.249c-.1717.0356-.2404-.0711-.2404-.2134zm1.6486.5691c.4122 0 .687.2846.687.7827v.249h-1.1678c0 .4624.2404.7114.5839.7114.2061 0 .4121-.0711.5495-.1778v.1067c0 .1779-.2747.3557-.6869.3557-.4465 0-.8243-.3557-.8243-.9249.0343-.7114.4465-1.1028.8586-1.1028zm.3779.8182c0-.3913-.1718-.6047-.4122-.6047-.2061 0-.4465.2846-.4465.6047zm.5839 1.1028c.103-.0356.206-.1067.206-.2134v-1.3874l-.2404-.1067v-.1067c.1717-.0356.3435-.0712.4809-.0712h.103v.2135c.1374-.1423.3435-.2135.5839-.2135.3435 0 .5495.2135.5495.6403v1.1384l.2061.0711v.0712c-.103.0356-.2404.0711-.4121.0711-.0687 0-.1718 0-.2405-.0355v-.0712c.1031-.0356.1374-.1067.1374-.2846v-.7826c0-.3913-.1717-.5692-.4121-.5692-.1718 0-.3092.0712-.4122.1423v1.3874l.2061.0711v.0712c-.1374.0356-.2748.0711-.4465.0711-.1031 0-.2061 0-.3091-.0355zm3.0225-1.8854c.3091 0 .4121.1067.4121.249 0 .0712-.0343.1423-.0343.2135-.1374-.1067-.3091-.1779-.4465-.1779-.2748 0-.5152.2846-.5152.747 0 .4981.2404.7471.5495.7471.1374 0 .3435-.0712.4465-.1779 0 .0356.0344.0712.0344.1067 0 .1779-.2061.3558-.5839.3558-.4465 0-.79-.3558-.79-.9249 0-.7471.4122-1.1384.9274-1.1384zm1.4425-.0356c.4122 0 .687.2846.687.7827v.249h-1.1678c0 .4624.2404.7114.5839.7114.206 0 .4121-.0711.5495-.1778v.1067c0 .1779-.2748.3557-.6869.3557-.4465 0-.8243-.3557-.8243-.9249.0343-.7114.4465-1.1028.8586-1.1028zm.3778.8182c0-.3913-.1717-.6047-.4121-.6047-.2061 0-.4465.2846-.4465.6047z"/><path d="m7.32647 19.0526c.10339-.058.24123-.058.20677.0579 0 0-.03446.029-.13784.029v.0579s-.03447.029 0 .058c0 0 .10338-.058.1723-.029.03447.0579 0 .1159-.1723.1449-.20677.0289-.34462.0869-.34462.2897.17231 0 .27569.058.41354.1159.20677.0869.41354-.029.41354-.029-.03446-.0289-.06892-.1448.03446-.2028.03446.058.13785.0869.17231.029-.10339-.058-.10339-.1159-.06893-.2028.03447.0579.17231 0 .17231-.029-.06892.029-.10338-.058-.10338-.0869 0-.029.03446-.2028-.03446-.2898.03446-.0289.1723-.0869.20676-.0869v-.029c-.06892-.0289-.20676 0-.20676-.0289l-.03447-.1739-.1723.058c-.03447 0-.10339-.1159-.13785-.1449.03446.029.03446.1449.03446.2028-.13784 0-.20677.029-.20677.0869-.03446 0-.1723.087-.1723.1159 0 0-.00001.029.03446.029-.13785-.029-.13785.029-.06893.058zm.2757-.1739c-.03447.0869-.10339.0869-.17231.029 0 0 .06892-.029.17231-.029z"/><path d="m8.05443 18.56h1.12v1.16h-1.12zm-1.18302 1.0604c-.03879 0-.03879 0 0 0-.03879.1195.03878.1992.11634.1992.11635 0 .11635-.0797.27148-.1195v-.0399h-.19391c-.15513.0399-.19391 0-.19391-.0398zm-3.02551-1.0475c0-.0797-.07756-.1195-.31026-.0797.03879.1594.19392.1992.31026.0797z"/><path d="m6.10322 19.4379-.12924.1254c-.04307.0313.08616.094.12924.0627l.12923-.1568s.47384.1881.60307.2508c0-.0627.04308-.1254.08616-.1881-.12923-.0313-.43077-.094-.43077-.094 0 .0313-.04308.0313-.08616.0313-.08615 0-.12923-.0627-.12923-.094 0 0 .08616.0313.08616 0l.04307-.0627.12923.0313.04308-.0627-.08615-.0313.56-.5644v-.1254c-.04308 0-.12923.0314-.17231.0314l-.56.5329-.08615-.0627-.04308.0627.08615.0627-.04307.0628c-.12923-.0628-.21539 0-.25847.0313.04308 0 .17231-.0313.17231.0314-.12923-.0314-.21538.0313-.21538.0627.04308.0313.12923.0313.17231.0627zm5.58278-.9669c-.1939 0-.2714 0-.3102.0797.1163.1594.2715.1195.3102-.0797zm-2.42315 1.2802c0 .0416-.04272.1249-.17087.1249-.08543 0-.2563-.0416-.38445-.0416-.21359 0-.29903.1664-.29903.2913 0 .2496.25631.2913.25631.5409 0 .1665-.2563.2497-.46989.0833-.04272-.2081-.08544-.3746-.21359-.541-.46989.1664-.59804-.1665-.85434-.1665-.21359 0-.51261.3746-.72619.4578l.04271-.2081h.04272v-.2081l-.04272.1249c-.04271-.0416-.08543-.1665-.08543-.1665v.1665l-.12815-.1665s.04272.1249.04272.2081l-.17087-.1665s.04271.1249.08543.2081c-.04272 0-.17087-.1248-.17087-.1248s.08544.0832.12815.1664c-.08543-.0416-.17086-.0832-.17086-.0832s.04271.0416.12815.1248h-.17087l.17087.0833.17087.0416c-.04272.0416-.04272.0832 0 .1248 0-.0416.04271-.0832.17086-.0832-.04271 0-.12815.0832-.08543.2081.04272-.0416.12815-.0833.12815-.0833l-.04272.2081c.17087.0416.34174-.0416.34174-.2497l-.17087-.0416c.21359-.1248.46989-.2497.68348-.2497.38445 0 .64076.4162.64076.6242 0 .0417 0 .1665-.04272.2081-.08544.0832-.12815.0832-.17087.0416.04272.1249.21359.1249.21359.0416.08543.2913.46989-.0416.68347.3746 0 0-.12815.0416-.17087 0-.12815-.0833-.17087 0-.21358.0416.12815-.0416.17086.0416.17086.0832-.08543-.0416-.21358 0-.17086.1665.04271-.1249.12815-.0833.12815-.0833-.04272.0417-.12815.1249 0 .2081 0-.0832.04271-.1248.08543-.1248s.12815 0 .17087-.0833c.04272.0833.17087.0417.21359.0417-.08544-.0417-.17087-.0833-.08544-.1249 0 0 .17087.0416.21359-.0832 0 0-.17087.0832-.21359-.0416-.04271-.0833-.04271-.2497-.12815-.2913.08544-.0416.12815-.0833.04272-.2081 0 .2081-.46989.0416-.46989-.2497.34174.0832.64076 0 .64076-.2913s-.29902-.4161-.29902-.5826c0-.0832.08543-.1248.12815-.1248.12815 0 .2563.1248.29902.2497.04272-.0417.04272-.1665 0-.1665.04272 0 .2563 0 .2563-.1665.08544 0 .08544-.0416.04272-.0416.04272-.0416 0-.0416 0 0z"/><path d="m.330811 0v29h14.559989v-29zm10.811489 17.5102c0-.0787.1184-.2361.4735-.1574.1578.0393.2762-.0394.2367-.1181h.0395c.0395.0394.0789.1574-.0395.2361-.1578.0787-.1578.2361-.1578.2755 0 .0393.0395.0393.0395 0 .0789-.2755.434-.3148.6708-.1968 0 .1574-.1579.2361-.2368.2361-.0394 0-.1184-.0393-.1184-.118 0-.0394 0-.0394-.0394 0-.0395.0787.1184.2754.3156.1574.1973.1967.1184.4722.1184.5902-.0394.1574.0395.3541.1973.2754 0 .1181-.1578.2361-.3157.1574-.0394.0394-.2762.3542.1184.4722 0 0 .0395.0394 0 .0394-.2762.118-.3946-.0787-.3946-.0787-.1183.3148.0789.4722.0789.4722-.0394.0393-.1578.1573-.3551.1967-.0789-.0394-.1973-.1181-.2367-.2361 0 0-.0395.118 0 .2754-.5524.0394-.7497-.3934-1.1838-.3147 0-.2755.1579-.787.7103-.8657.5129-.1181.3946-.3148.3946-.3148-.2368 0-.3552.0787-.3552.0787-.0394-.0787 0-.1181 0-.1181-.0394-.0393-.0394-.118-.0394-.118.2367 0 .3156-.0393.3156-.0393.0395-.1574-.0789-.3542-.434-.1181-.0789-.0787-.0789-.1967-.0789-.1967-.0395 0-.0395-.0394-.0395-.0787-.0789-.1968.2368-.3542.3157-.3935zm-.8681.5509c0-.0394 0-.0394 0 0 .0395.0787.1579.118.2762.118.1184 0 .1579-.0393.3552-.0393 0 0 .1578 0 .1578.0393 0 .0394-.0789 0-.1578.0394-.1973.0393-.2763.118-.4341.118-.1184 0-.2367-.118-.1973-.2754zm-2.91987-3.3447c.03946 0 .07892.0394.11838.0394.03945.0393.07891.0393.07891 0 0 0 .03946-.0394 0-.0787 0-.0394-.03946-.0787-.03946-.1181 0-.0787.03946-.118.07892-.118s.07892.0393.07892.118c0 .0394-.03946.0787-.03946.1181-.03946.0393-.03946.0787 0 .0787 0 0 .03946.0393.07891 0 .03946 0 .07892-.0394.11838-.0394.07891 0 .11837.0394.11837.0787 0 .0394-.03946.0787-.11837.0787-.03946 0-.07892-.0393-.11838-.0393-.03945-.0394-.07891-.0394-.07891 0 0 0 0 .1574.03946.3148.11837.0393.19729.118.19729.1967 0 .1574-.15784.2361-.27621.3148-.11837-.0394-.27621-.1574-.27621-.3148 0-.0787.07892-.1574.19729-.1967 0-.1181.03946-.2755.03946-.3148 0 0-.03946-.0394-.07891 0-.03946 0-.07892.0393-.11838.0393-.07891 0-.11837-.0393-.11837-.0787 0-.0393.03946-.0787.11837-.0787zm.43404 1.2198c0 .1181-.07892.1968-.19729.1968s-.19729-.0787-.19729-.1968c0-.118.07892-.1967.19729-.1967s.19729.0787.19729.1967zm-1.77561.0394c.15783 0 .15783.118.31566.118h.03946c0 .0394-.03946.1181-.11837.1181-.07892 0-.07892-.0787-.15783-.0787-.03946 0-.07892.0393-.07892.118 0 .1968.11838.3935.27621.5509.03946-.0393.07891-.0787.11837-.0787.07892 0 .15783.0787.15783.1967 0 .0394 0 .0787-.03946.1181.03946.0393.07892.0393.11838.0393.07891 0 .15783-.0393.15783-.1574 0-.3147-.43404-.5902-.43404-.9837 0-.1967.11838-.3935.39458-.3935.27621 0 .23675.2755.4735.2755h.03946s-.03946.1574-.15784.1574c-.11837 0-.15783-.2361-.2762-.2361-.03946 0-.11838.0393-.11838.1967 0 .1181.07892.3148.15784.5116.03945-.0394.07891-.0394.11837-.0394.11837 0 .19729.1181.19729.2361 0 .0787-.03946.1574-.07892.1967.07892.0787.11838.1574.19729.1574.15784 0 .23675-.0787.23675-.1967s-.19729-.1574-.19729-.3148c0-.118.07892-.1967.15783-.1967.07892 0 .11838.0393.11838.0393s.03946-.0393.11837-.0393c.07892 0 .15783.0787.15783.1967 0 .1574-.19729.1968-.19729.3148s.07892.1967.23675.1967c.07892 0 .15783-.0787.19729-.1574-.03946-.0393-.07891-.118-.07891-.1967 0-.118.07891-.2361.19729-.2361.03945 0 .07891.0394.11837.0394.07892-.1968.15783-.3935.15783-.5116 0-.1574-.07891-.1967-.11837-.1967-.11838 0-.15783.2361-.27621.2361-.11837 0-.15783-.1574-.15783-.1574h.03946c.23675 0 .19729-.2755.47349-.2755.27621 0 .39458.1968.39458.3935 0 .3935-.43403.669-.43403.9837 0 .1574.07891.1574.15783.1574.03946 0 .07891 0 .11837-.0393 0-.0394-.03946-.0787-.03946-.1181 0-.118.07892-.1967.15784-.1967.03945 0 .07891.0394.11837.0787.15783-.1574.27621-.3541.27621-.5509 0-.0787-.03946-.118-.07892-.118-.07892 0-.07892.0787-.15783.0787-.07892 0-.11838-.0787-.11838-.1181h.03946c.15783 0 .11838-.118.31567-.118.03945 0 .2762.0393.2762.3148 0 .4328-.51295.5508-.39458.8656-.23675-.0393-.23675.1968-.23675.5903 0 0-.43403-.1574-1.22319-.1574s-1.2232.1574-1.2232.1574c0-.3935 0-.5903-.23675-.5903.11838-.3148-.39458-.4721-.39458-.8656-.03946-.3148.15783-.3148.19729-.3148zm-1.10482 2.0855c.03946-.0394.03946-.0394 0 0 .07891.1967-.03946.2754-.19729.2754s-.23675-.118-.43404-.118c-.07892 0-.15783 0-.15783-.0394 0-.0393.11837-.0393.15783-.0393.19729 0 .23675.0393.35512.0393.15783 0 .27621-.0393.27621-.118zm-2.28857.6295c.15784.0787.23675-.0787.19729-.2754-.03945-.0787-.11837-.3541.11838-.5902.19729.118.35512-.0787.31566-.1574 0-.0394-.03946-.0394-.03946 0 0 .0787-.07891.118-.11837.118-.07892 0-.23675-.0787-.23675-.2361.23675-.1574.59187-.0787.67079.1968 0 .0393.03946.0393.03946 0 0-.0394 0-.1968-.15784-.2755-.15783-.0787-.07891-.1967-.03945-.2361h.03945c-.03945.0787.07892.1574.23675.1181.35512-.0394.4735.0787.4735.1574.07891 0 .35512.1967.35512.2361 0 0 0 .0787-.03946.0787 0 0 0 .118-.07891.1967-.35513-.2361-.4735 0-.43404.1181 0 0 .07891.0393.31566.0393 0 0 0 .0787-.03946.1181 0 0 .03946.0786 0 .118 0 0-.11837-.0787-.35512-.0787 0 0-.15783.1967.39458.3148.51296.118.71025.5902.71025.8657-.43404-.0787-.63133.3541-1.18374.3147.03945-.118 0-.2754 0-.2754-.03946.1181-.15784.1968-.23675.2361-.19729-.0393-.31567-.118-.35512-.1967 0 0 .19729-.1574.07891-.4722 0 0-.11837.1967-.39458.0787-.03946 0 0-.0394 0-.0394.35512-.118.11838-.4328.11838-.4722-.19729.2361-.35513.1181-.35513 0 0-.0393 0-.0393 0 0zm2.68315 5.9023c0 .5509-.90754.0394-1.77561-.0393-.71025-.0394-.94699.1574-.94699.1574l.11837-.7476c0-.0394.15783-.1574.67079-.1574.59187 0 .90753.118 1.0259.1574v.3935c0 .0786.03946.118.11838.1573 0-.0393.11837-.236.78916-.236zm-.82862-2.9118c-.07892-.0787-.51295-.2361-.7497-.3148.07891 0 .11837-.0393.11837-.118 0-.0393 0-.118-.07891-.1574.11837-.118.35512-.1967.47349-.1967.4735 0 .86808.6295 1.02591.6295.03946 0 .03946 0 .07892-.0393 0 .1967-.11838.1967-.15784.1967-.03945 0-.07891 0-.07891-.0393v.0393c0 .2361-.23675.4722-.23675.4722.11837.1181.35512.2755.43404.1968.03946-.0394.15783-.2755.35512-.0787-.11837 0-.19729.0787-.15783.1967.15783-.118.35512-.118.35512.1574-.11838-.1574-.23675-.0393-.27621-.0393.11838 0 .27621.1574.11838.3541 0-.1574-.11838-.1574-.15783-.1574-.15784 0-.23675.118-.35513 0-.03945.1967-.23674.1574-.31566.1574.07892-.0394.11837-.118.11837-.1574 0-.118-.23674-.2754-.31566-.2754s-.11837.0787-.23675.0787c-.07891 0-.11837-.0394-.19729-.1181.03946 0 .19729.0394.23675-.1967.11837-.3148.11837-.4722 0-.5903zm.11837 2.5577c-.03945 0-.03945 0 0 0l-.03945-.7476c0-.2361 1.4994-.3542 3.03826-.3542 1.57832 0 3.03822.1181 3.03822.3542v.7476s0 .0394-.0394 0c-.1973-.1967-1.61779-.2754-3.03828-.2754-1.34157-.0394-2.80151.0393-2.95935.2754zm4.89279-2.0068c.15784-.1967.31567.0394.35513.0787.07891.0787.35511-.0787.43401-.1967 0 0-.2367-.2361-.2367-.4722v-.0394c-.03948 0-.03948.0394-.07894.0394s-.15783 0-.15783-.1968c.03946.0394.03946.0394.07891.0394.19726 0 .59186-.6296 1.02596-.6296.1183 0 .3551.0787.4734.1968-.0394.0393-.0789.118-.0789.1574 0 .0787.0789.118.1184.118-.2367.0787-.6708.2361-.7497.3148-.1184.0787-.0789.2754-.0395.5509.079.2361.1973.1967.2368.1967-.0789.0787-.1184.1181-.1973.1181-.1184 0-.1578-.0787-.2367-.0787-.1184 0-.3157.1574-.3157.2754 0 .0787.0395.1181.1184.1574-.0395 0-.27624.0393-.3157-.1574-.11837.1574-.23674 0-.35512 0-.07891 0-.15783.0394-.15783.1574-.15783-.2361.03946-.3541.11837-.3541-.03946-.0394-.19729-.1181-.2762.0393 0-.2754.19729-.2754.35512-.1574.07891-.0787 0-.1574-.11838-.1574zm2.20964 2.3609c-.8681.0394-1.7756.5903-1.7756.0394v-.3148c.6708 0 .7892.2361.7892.2361.0789-.0394.1183-.0787.1183-.1574v-.3935c.1184-.0393.3946-.1574 1.0259-.1574.513 0 .6708.1181.6708.1574l.1184.7476c0-.0393-.1973-.2361-.947-.1574zm1.894-5.0366c-.0789 0-.1578-.0393-.1973-.0393.0789.118.0789.2754.0395.3541h-.0395c-.0395-.1967-.2367-.3935-.4735-.3935-.3157 0-.3157.2361-.3157.3148 0 .3541.6314.6296.6314 1.1411s-.5524.6296-.8681.5509c0 .5115.5919.6689.6313.3148 0 0 0-.0394.0395 0 .0789.1967.0394.3541-.1973.3935v.0393c.2367.1574.1184.7083.0789.8657 0 .2361.2368.1967.2368.1967v.0394c-.1579.1967-.3946 0-.3946 0-.1579.0393-.0789.1967.0394.2361v.0393c-.0394 0-.2762.0394-.3156-.1574-.1184.1181-.2762.0787-.3157.0787-.0394-.0393-.2762-.118-.3157.1574-.1578-.1967 0-.3541.1184-.3541 0 0-.1578-.1181-.2762.0393 0-.2754.1973-.3148.3551-.1967 0-.0394.0395-.1968-.1578-.1574.1578-.1967.3157 0 .3551.0393.0789.0787.2762.0394.2762.0394-.0394-.9444-.9075-.6296-1.0259-1.0624-.0394.118-.3156.118-.3551-.0787.2367.2361.7892-.5116.0395-1.1411-.6314-.5116-1.22324-.2361-1.42053-.0787 0 .0787.03946.118.07892.118-.07892.0394-.15784 0-.19729-.0393-.11838.0787 0 .1967.03946.2361v.0393c-.11838.0394-.23675-.118-.23675-.1967h-.03946v.5508c0 .787-.90754.8657-1.85453 1.5346-.98645-.6689-1.85452-.7476-1.85452-1.5346v-.5508h-.03946c0 .0787-.11837.1967-.23675.1967v-.0393c.03946-.0394.15783-.1574.03946-.2361-.03946.0393-.11837.0787-.19729.0393.03946 0 .07892-.0393.07892-.118-.23675-.1574-.78916-.4722-1.42049.0787-.7497.6295-.19729 1.3772.03946 1.1411-.03946.2361-.35513.1967-.35513.0787-.11837.4722-.94699.118-1.0259 1.0624 0 0 .19729.0393.2762-.0394.03946-.0393.15783-.1967.35512-.0393-.23674 0-.15783.1574-.15783.1574.15783-.1181.35512-.0787.35512.1967-.11837-.1574-.2762-.0393-.2762-.0393.11837 0 .2762.1574.11837.3541-.03946-.2361-.23675-.1574-.31566-.1574-.03946 0-.19729.0787-.31567-.0787-.03945.1968-.2762.1574-.31566.1574v-.0393c.11837-.0787.19729-.1968.03946-.2361 0 0-.19729.1967-.39458 0v-.0394s.2762.0394.23675-.1967c0-.1574-.11838-.7083.07891-.8657 0 0 .03946 0 0-.0393-.23675-.0394-.2762-.1968-.19729-.3935 0-.0394.03946 0 .03946 0 0 .3541.59187.1967.63133-.3148-.31567.0787-.86808-.0394-.86808-.5509s.63133-.787.63133-1.1411c0-.0787 0-.3148-.31566-.3148-.23675 0-.43404.1968-.4735.3935h-.03946c-.03946-.0393-.03946-.2361.03946-.3541-.03946 0-.11837.0393-.19729.0393-.19729 0-.31566-.118-.31566-.2754 0-.1181.03945-.1574.03945-.1968 0 0 0-.0393.03946 0 .03946.0394.07892.1968.27621.1968h.47349c.55242 0 .59187.4328.59187.5508 0 .4329-.55241.6296-.55241 1.1018 0 .1181.03946.2755.35512.2755.11838 0 .23675-.0394.31567-.0787 0 0 .11837-.787.51295-1.0625 0 0 .4735.2361.90754-.0393.35512-.1967.51295-.3148.78916-.1181.31566.1968.55241.4329.59187.4329h.07891v-1.8101c-.15783 0-.15783.1181-.15783.1574 0 .0394.03946.0787-.03946.1968h-.03946c0-.0394-.03945-.0787-.07891-.0787s-.27621.1574-.43404.3541c0 0-.11837-.3148-.35512-.3935.15783-.0393.7497-.1574.7497-.4328 0-.0787.11837-.118.15783-.118 0 0 .11838-.2361.27621-.1181v.0394c-.07892 0-.11838.118-.11838.1967.07892-.0393.23675-.0787.43404-.118v.5902h.23675v-.6296c.31566-.0393.71024-.118 1.18374-.118.90753 0 1.65723.1967 1.85452.2754 0-.0787-.03945-.1967-.11837-.1967v-.0394c.19729-.118.27621.1181.27621.1181.07891 0 .15783 0 .15783.118 0 .2754.63136.4328.74966.4328-.2367.0787-.35508.3935-.35508.3935-.19729-.1967-.39458-.3541-.43404-.3541s-.07892.0787-.07892.0787c-.07891-.1574-.03945-.1574-.03945-.1968 0-.0393 0-.1574-.15784-.1574v1.8101h.07892c.03946 0 .27621-.2361.59187-.4329.31564-.1967.47354-.0786.78914.1181.4341.2361.9076.0393.9076.0393.3945.2755.5129 1.0625.5129 1.0625.0789.0393.1973.0787.3157.0787.2762 0 .3551-.1968.3551-.2755 0-.4722-.5524-.6689-.5524-1.1018 0-.118.0394-.5508.5919-.5508h.4734c.1973 0 .2763-.1574.2763-.1968 0-.0393.0394 0 .0394 0 0 .0394.0395.0787.0395.1968.1973.1574.0789.2754-.1184.2754z"/><path d="m8.05456 22.04h1.12v1.16h-1.12zm-1.00365-.8714c-.07 0-.14-.1082-.07-.2165-.07-.036-.14-.0721-.175-.0721-.245 0-.42.2886-.455.3246-.035.0361-.105.1082-.14.0361 0 .1082.105.1082.14.1082 0 .1082.07.3246.07.3246s-.105.1082-.175.1082c-.035 0-.07-.1082-.14-.1082-.035 0-.035 0-.07.0361.07 0 .105.0361.07.0721-.07-.0721-.175-.036-.175.0722.035-.0722.14-.0361.14 0-.035 0-.14.0721-.07.1803 0-.036 0-.0721.07-.0721s.14.0721.175 0c.035.1082.105.0721.14.0721-.035-.036-.07-.0721-.07-.0721 0-.0721.105-.1443.175-.1443.035 0 .035.0361.105.0361.035 0 .07 0 .105-.0361-.07.0361-.14-.0721-.14-.2164 0-.2525.14-.3246.49-.4328z"/></g></svg>